%
M48
M72
T01C0.0236
T02C0.0315
T03C0.0394
%
T01
X3250Y8000
X5250Y8000
X11650Y16200
X11750Y11700
X14250Y9000
X17350Y9000
X17350Y11000
X19450Y11000
X19450Y9000
X19250Y16100
X19250Y23000
X17050Y30400
X20250Y30900
X12750Y28800
X9850Y29800
X9250Y26200
X9250Y21800
X5250Y21300
X5250Y19800
X5250Y24300
X5250Y26700
T02
X2750Y7000
X3750Y7000
X4750Y7000
X3750Y9000
X3750Y10000
X3750Y11000
X3750Y12000
X3750Y13000
X3750Y14000
X3750Y15000
X3750Y16000
X3750Y17000
X3750Y18000
X3750Y19000
X3750Y20000
X3750Y21000
X3750Y22000
X3750Y23000
X3750Y24000
X3750Y25000
X3750Y26000
X3750Y27000
X3750Y28000
X5250Y32000
X5250Y33000
X6250Y33000
X6250Y32000
X7250Y32000
X7250Y33000
X8250Y33000
X8250Y32000
X9250Y32000
X9250Y33000
X12750Y28000
X12750Y27000
X12750Y26000
X12750Y25000
X12750Y24000
X12750Y23000
X12750Y22000
X12750Y21000
X12750Y20000
X12750Y19000
X12750Y18000
X12750Y17000
X12750Y16000
X12750Y15000
X12750Y14000
X12750Y13000
X12750Y12000
X12750Y11000
X12750Y10000
X12750Y9000
X14750Y10000
X15750Y10000
X14750Y13000
X14750Y14000
X14750Y15000
X14750Y16000
X14750Y17000
X14750Y18000
X14750Y19000
X14250Y21000
X14250Y22000
X15250Y22000
X15250Y21000
X16250Y21000
X16250Y20000
X17250Y21000
X17250Y22000
X16250Y22000
X16250Y23000
X18250Y22000
X18250Y21000
X19250Y21000
X19250Y20000
X19250Y19000
X19250Y18000
X19250Y17000
X19250Y22000
X17250Y32000
X17250Y33000
X16250Y33000
X16250Y32000
X15250Y32000
X15250Y33000
X14250Y33000
X14250Y32000
X13250Y32000
X13250Y33000
X18250Y11000
X18250Y10000
X18250Y9000
X18250Y7000
X19250Y7000
T03
X20250Y8000
X20250Y9000
X20250Y10000
X20250Y11000
X20250Y12000
X20250Y13000
X20250Y14000
X20250Y15000
X20250Y16000
X20250Y17000
X20250Y18000
X20250Y19000
X20250Y20000
X20250Y21000
X20250Y22000
X20250Y23000
X20250Y24000
X20250Y25000
X20250Y26000
X20250Y27000
X20250Y28000
X20250Y29000
X20250Y30000
X21250Y30000
X21250Y29000
X21250Y28000
X21250Y27000
X21250Y26000
X21250Y25000
X21250Y24000
X21250Y23000
X21250Y22000
X21250Y21000
X21250Y20000
X21250Y19000
X21250Y18000
X21250Y17000
X21250Y16000
X21250Y15000
X21250Y14000
X21250Y13000
X21250Y12000
X21250Y11000
X21250Y10000
X21250Y9000
X21250Y8000
X2250Y8000
X2250Y9000
X2250Y10000
X2250Y11000
X2250Y12000
X2250Y13000
X2250Y14000
X2250Y15000
X2250Y16000
X2250Y17000
X2250Y18000
X2250Y19000
X2250Y20000
X2250Y21000
X2250Y22000
X2250Y23000
X2250Y24000
X2250Y25000
X2250Y26000
X2250Y27000
X2250Y28000
X2250Y29000
X2250Y30000
X1250Y30000
X1250Y29000
X1250Y28000
X1250Y27000
X1250Y26000
X1250Y25000
X1250Y24000
X1250Y23000
X1250Y22000
X1250Y21000
X1250Y20000
X1250Y19000
X1250Y18000
X1250Y17000
X1250Y16000
X1250Y15000
X1250Y14000
X1250Y13000
X1250Y12000
X1250Y11000
X1250Y10000
X1250Y9000
X1250Y8000
M30
