G75*
G70*
%OFA0B0*%
%FSLAX24Y24*%
%IPPOS*%
%LPD*%
%AMOC8*
5,1,8,0,0,1.08239X$1,22.5*
%
%ADD10R,0.0552X0.0552*%
%ADD11OC8,0.0552*%
%ADD12R,0.0946X0.0316*%
%ADD13R,0.0513X0.0474*%
%ADD14C,0.0552*%
%ADD15C,0.0552*%
%ADD16R,0.0671X0.0671*%
%ADD17C,0.0671*%
%ADD18C,0.0456*%
D10*
X015750Y010000D03*
X016250Y023000D03*
X017750Y028087D03*
X017750Y028913D03*
X018750Y028913D03*
X018750Y028087D03*
X013250Y032000D03*
X005250Y032000D03*
D11*
X005250Y033000D03*
X006250Y033000D03*
X006250Y032000D03*
X007250Y032000D03*
X007250Y033000D03*
X008250Y033000D03*
X008250Y032000D03*
X009250Y032000D03*
X009250Y033000D03*
X013250Y033000D03*
X014250Y033000D03*
X014250Y032000D03*
X015250Y032000D03*
X015250Y033000D03*
X016250Y033000D03*
X016250Y032000D03*
X017250Y032000D03*
X017250Y033000D03*
D12*
X010061Y029250D03*
X010061Y028750D03*
X010061Y028250D03*
X010061Y027750D03*
X010061Y027250D03*
X010061Y026750D03*
X010061Y026250D03*
X010061Y025750D03*
X010061Y024750D03*
X010061Y024250D03*
X010061Y023750D03*
X010061Y023250D03*
X010061Y022750D03*
X010061Y022250D03*
X010061Y021750D03*
X010061Y021250D03*
X006439Y021250D03*
X006439Y021750D03*
X006439Y022250D03*
X006439Y022750D03*
X006439Y023250D03*
X006439Y023750D03*
X006439Y024250D03*
X006439Y024750D03*
X006439Y025750D03*
X006439Y026250D03*
X006439Y026750D03*
X006439Y027250D03*
X006439Y027750D03*
X006439Y028250D03*
X006439Y028750D03*
X006439Y029250D03*
D13*
X006415Y025200D03*
X007085Y025200D03*
X009415Y025200D03*
X010085Y025200D03*
X010085Y020600D03*
X009415Y020600D03*
X007085Y020600D03*
X006415Y020600D03*
X017750Y026665D03*
X017750Y027335D03*
X018750Y027335D03*
X018750Y026665D03*
D14*
X012986Y027000D02*
X012514Y027000D01*
X012514Y026000D02*
X012986Y026000D01*
X012986Y025000D02*
X012514Y025000D01*
X012514Y024000D02*
X012986Y024000D01*
X012986Y023000D02*
X012514Y023000D01*
X012514Y022000D02*
X012986Y022000D01*
X012986Y021000D02*
X012514Y021000D01*
X012514Y020000D02*
X012986Y020000D01*
X012986Y019000D02*
X012514Y019000D01*
X012514Y018000D02*
X012986Y018000D01*
X012986Y017000D02*
X012514Y017000D01*
X012514Y016000D02*
X012986Y016000D01*
X012986Y015000D02*
X012514Y015000D01*
X012514Y014000D02*
X012986Y014000D01*
X012986Y013000D02*
X012514Y013000D01*
X012514Y012000D02*
X012986Y012000D01*
X012986Y011000D02*
X012514Y011000D01*
X012514Y010000D02*
X012986Y010000D01*
X012986Y009000D02*
X012514Y009000D01*
X003986Y009000D02*
X003514Y009000D01*
X003514Y010000D02*
X003986Y010000D01*
X003986Y011000D02*
X003514Y011000D01*
X003514Y012000D02*
X003986Y012000D01*
X003986Y013000D02*
X003514Y013000D01*
X003514Y014000D02*
X003986Y014000D01*
X003986Y015000D02*
X003514Y015000D01*
X003514Y016000D02*
X003986Y016000D01*
X003986Y017000D02*
X003514Y017000D01*
X003514Y018000D02*
X003986Y018000D01*
X003986Y019000D02*
X003514Y019000D01*
X003514Y020000D02*
X003986Y020000D01*
X003986Y021000D02*
X003514Y021000D01*
X003514Y022000D02*
X003986Y022000D01*
X003986Y023000D02*
X003514Y023000D01*
X003514Y024000D02*
X003986Y024000D01*
X003986Y025000D02*
X003514Y025000D01*
X003514Y026000D02*
X003986Y026000D01*
X003986Y027000D02*
X003514Y027000D01*
X003514Y028000D02*
X003986Y028000D01*
X012514Y028000D02*
X012986Y028000D01*
D15*
X002750Y007000D03*
X003750Y007000D03*
X004750Y007000D03*
X014250Y021000D03*
X014250Y022000D03*
X015250Y022000D03*
X015250Y021000D03*
X016250Y021000D03*
X016250Y020000D03*
X017250Y021000D03*
X017250Y022000D03*
X016250Y022000D03*
X018250Y022000D03*
X018250Y021000D03*
X019250Y021000D03*
X019250Y020000D03*
X019250Y019000D03*
X019250Y018000D03*
X019250Y017000D03*
X019250Y022000D03*
X014750Y019000D03*
X014750Y018000D03*
X014750Y017000D03*
X014750Y016000D03*
X014750Y015000D03*
X014750Y014000D03*
X014750Y013000D03*
X014750Y010000D03*
X018250Y010000D03*
X018250Y009000D03*
X018250Y007000D03*
X019250Y007000D03*
X018250Y011000D03*
D16*
X021250Y008000D03*
X002250Y008000D03*
D17*
X002250Y009000D03*
X002250Y010000D03*
X002250Y011000D03*
X002250Y012000D03*
X002250Y013000D03*
X002250Y014000D03*
X002250Y015000D03*
X002250Y016000D03*
X002250Y017000D03*
X002250Y018000D03*
X002250Y019000D03*
X002250Y020000D03*
X002250Y021000D03*
X002250Y022000D03*
X002250Y023000D03*
X002250Y024000D03*
X002250Y025000D03*
X002250Y026000D03*
X002250Y027000D03*
X002250Y028000D03*
X002250Y029000D03*
X002250Y030000D03*
X001250Y030000D03*
X001250Y029000D03*
X001250Y028000D03*
X001250Y027000D03*
X001250Y026000D03*
X001250Y025000D03*
X001250Y024000D03*
X001250Y023000D03*
X001250Y022000D03*
X001250Y021000D03*
X001250Y020000D03*
X001250Y019000D03*
X001250Y018000D03*
X001250Y017000D03*
X001250Y016000D03*
X001250Y015000D03*
X001250Y014000D03*
X001250Y013000D03*
X001250Y012000D03*
X001250Y011000D03*
X001250Y010000D03*
X001250Y009000D03*
X001250Y008000D03*
X020250Y008000D03*
X020250Y009000D03*
X020250Y010000D03*
X020250Y011000D03*
X020250Y012000D03*
X020250Y013000D03*
X020250Y014000D03*
X020250Y015000D03*
X020250Y016000D03*
X020250Y017000D03*
X020250Y018000D03*
X020250Y019000D03*
X020250Y020000D03*
X020250Y021000D03*
X020250Y022000D03*
X020250Y023000D03*
X020250Y024000D03*
X020250Y025000D03*
X020250Y026000D03*
X020250Y027000D03*
X020250Y028000D03*
X020250Y029000D03*
X020250Y030000D03*
X021250Y030000D03*
X021250Y029000D03*
X021250Y028000D03*
X021250Y027000D03*
X021250Y026000D03*
X021250Y025000D03*
X021250Y024000D03*
X021250Y023000D03*
X021250Y022000D03*
X021250Y021000D03*
X021250Y020000D03*
X021250Y019000D03*
X021250Y018000D03*
X021250Y017000D03*
X021250Y016000D03*
X021250Y015000D03*
X021250Y014000D03*
X021250Y013000D03*
X021250Y012000D03*
X021250Y011000D03*
X021250Y010000D03*
X021250Y009000D03*
D18*
X019450Y009000D03*
X019450Y011000D03*
X017350Y011000D03*
X017350Y009000D03*
X014250Y009000D03*
X011750Y011700D03*
X011650Y016200D03*
X009250Y021800D03*
X009250Y026200D03*
X009850Y029800D03*
X012750Y028800D03*
X017050Y030400D03*
X020250Y030900D03*
X019250Y023000D03*
X019250Y016100D03*
X005250Y019800D03*
X005250Y021300D03*
X005250Y024300D03*
X005250Y026700D03*
X005250Y008000D03*
X003250Y008000D03*
M02*
