G75*
G70*
%OFA0B0*%
%FSLAX24Y24*%
%IPPOS*%
%LPD*%
%AMOC8*
5,1,8,0,0,1.08239X$1,22.5*
%
%ADD10C,0.0050*%
%ADD11C,0.0070*%
D10*
X000500Y006250D02*
X005500Y006250D01*
X005503Y006357D01*
X005510Y006464D01*
X005523Y006570D01*
X005541Y006676D01*
X005563Y006780D01*
X005591Y006884D01*
X005624Y006986D01*
X005661Y007086D01*
X005703Y007185D01*
X005750Y007281D01*
X005801Y007375D01*
X005857Y007466D01*
X005917Y007555D01*
X005981Y007641D01*
X006050Y007723D01*
X006122Y007803D01*
X006197Y007878D01*
X006277Y007950D01*
X006359Y008019D01*
X006445Y008083D01*
X006534Y008143D01*
X006625Y008199D01*
X006719Y008250D01*
X006815Y008297D01*
X006914Y008339D01*
X007014Y008376D01*
X007116Y008409D01*
X007220Y008437D01*
X007324Y008459D01*
X007430Y008477D01*
X007536Y008490D01*
X007643Y008497D01*
X007750Y008500D01*
X014750Y008500D01*
X014857Y008497D01*
X014964Y008490D01*
X015070Y008477D01*
X015176Y008459D01*
X015280Y008437D01*
X015384Y008409D01*
X015486Y008376D01*
X015586Y008339D01*
X015685Y008297D01*
X015781Y008250D01*
X015875Y008199D01*
X015966Y008143D01*
X016055Y008083D01*
X016141Y008019D01*
X016223Y007950D01*
X016303Y007878D01*
X016378Y007803D01*
X016450Y007723D01*
X016519Y007641D01*
X016583Y007555D01*
X016643Y007466D01*
X016699Y007375D01*
X016750Y007281D01*
X016797Y007185D01*
X016839Y007086D01*
X016876Y006986D01*
X016909Y006884D01*
X016937Y006780D01*
X016959Y006676D01*
X016977Y006570D01*
X016990Y006464D01*
X016997Y006357D01*
X017000Y006250D01*
X022000Y006250D01*
X022000Y029500D01*
X021994Y029738D01*
X021977Y029975D01*
X021949Y030212D01*
X021910Y030446D01*
X021859Y030679D01*
X021797Y030909D01*
X021725Y031135D01*
X021642Y031358D01*
X021548Y031577D01*
X021444Y031791D01*
X021330Y032000D01*
X021206Y032203D01*
X021073Y032400D01*
X020930Y032591D01*
X020779Y032774D01*
X020619Y032950D01*
X020450Y033119D01*
X020274Y033279D01*
X020091Y033430D01*
X019900Y033573D01*
X019703Y033706D01*
X019500Y033830D01*
X019291Y033944D01*
X019077Y034048D01*
X018858Y034142D01*
X018635Y034225D01*
X018409Y034297D01*
X018179Y034359D01*
X017946Y034410D01*
X017712Y034449D01*
X017475Y034477D01*
X017238Y034494D01*
X017000Y034500D01*
X005500Y034500D01*
X005255Y034494D01*
X005010Y034476D01*
X004766Y034446D01*
X004525Y034404D01*
X004285Y034350D01*
X004049Y034285D01*
X003816Y034208D01*
X003587Y034119D01*
X003362Y034020D01*
X003143Y033910D01*
X002929Y033789D01*
X002722Y033657D01*
X002522Y033516D01*
X002328Y033365D01*
X002142Y033205D01*
X001964Y033036D01*
X001795Y032858D01*
X001635Y032672D01*
X001484Y032478D01*
X001343Y032278D01*
X001211Y032071D01*
X001090Y031857D01*
X000980Y031638D01*
X000881Y031413D01*
X000792Y031184D01*
X000715Y030951D01*
X000650Y030715D01*
X000596Y030475D01*
X000554Y030234D01*
X000524Y029990D01*
X000506Y029745D01*
X000500Y029500D01*
X000500Y006250D01*
X006025Y012644D02*
X006475Y012644D01*
X006475Y012944D01*
X006475Y013104D02*
X006475Y013329D01*
X006400Y013404D01*
X006250Y013404D01*
X006175Y013329D01*
X006175Y013104D01*
X006025Y013104D02*
X006475Y013104D01*
X006250Y012794D02*
X006250Y012644D01*
X006250Y013565D02*
X006250Y013865D01*
X006100Y014025D02*
X006025Y014100D01*
X006025Y014250D01*
X006100Y014325D01*
X006475Y014325D01*
X006475Y014485D02*
X006025Y014786D01*
X006475Y014786D01*
X006325Y014946D02*
X006475Y015096D01*
X006325Y015246D01*
X006025Y015246D01*
X006250Y015246D02*
X006250Y014946D01*
X006325Y014946D02*
X006025Y014946D01*
X006025Y014485D02*
X006475Y014485D01*
X006475Y014025D02*
X006100Y014025D01*
X007375Y013099D02*
X007375Y013024D01*
X007375Y013099D02*
X007450Y013174D01*
X007825Y013174D01*
X007750Y013334D02*
X007600Y013334D01*
X007525Y013409D01*
X007525Y013560D01*
X007600Y013635D01*
X007750Y013635D01*
X007825Y013560D01*
X007825Y013409D01*
X007750Y013334D01*
X007525Y013174D02*
X007525Y012949D01*
X007600Y012874D01*
X007825Y012874D01*
X007750Y012714D02*
X007525Y012714D01*
X007525Y012489D01*
X007600Y012414D01*
X007675Y012489D01*
X007675Y012714D01*
X007750Y012714D02*
X007825Y012639D01*
X007825Y012489D01*
X007975Y012253D02*
X007825Y012103D01*
X007975Y011953D01*
X007525Y011953D01*
X007525Y012253D02*
X007975Y012253D01*
X008525Y012330D02*
X008825Y012330D01*
X008975Y012180D01*
X008825Y012030D01*
X008525Y012030D01*
X008600Y011870D02*
X008525Y011795D01*
X008525Y011645D01*
X008600Y011570D01*
X008900Y011570D01*
X008975Y011645D01*
X008975Y011795D01*
X008900Y011870D01*
X008750Y011870D02*
X008750Y011720D01*
X008750Y011870D02*
X008600Y011870D01*
X008750Y012030D02*
X008750Y012330D01*
X008675Y012490D02*
X008675Y012716D01*
X008750Y012791D01*
X008900Y012791D01*
X008975Y012716D01*
X008975Y012490D01*
X008525Y012490D01*
X008675Y012640D02*
X008525Y012791D01*
X008525Y013101D02*
X008750Y013101D01*
X008900Y013251D01*
X008975Y013251D01*
X008750Y013101D02*
X008900Y012951D01*
X008975Y012951D01*
X008900Y013872D02*
X008825Y013872D01*
X008750Y013947D01*
X008750Y014097D01*
X008675Y014172D01*
X008600Y014172D01*
X008525Y014097D01*
X008525Y013947D01*
X008600Y013872D01*
X008900Y013872D02*
X008975Y013947D01*
X008975Y014097D01*
X008900Y014172D01*
X008975Y014332D02*
X008525Y014332D01*
X008525Y014632D01*
X008525Y014792D02*
X008975Y014792D01*
X008975Y015018D01*
X008900Y015093D01*
X008750Y015093D01*
X008675Y015018D01*
X008675Y014792D01*
X008675Y014942D02*
X008525Y015093D01*
X008675Y015253D02*
X008525Y015403D01*
X008675Y015553D01*
X008975Y015553D01*
X008975Y015713D02*
X008975Y015863D01*
X008975Y015788D02*
X008525Y015788D01*
X008525Y015713D02*
X008525Y015863D01*
X008525Y016020D02*
X008975Y016020D01*
X008525Y016320D01*
X008975Y016320D01*
X008975Y015253D02*
X008675Y015253D01*
X008975Y014632D02*
X008975Y014332D01*
X008750Y014332D02*
X008750Y014482D01*
X007975Y014480D02*
X007975Y014330D01*
X007900Y014255D01*
X007975Y014480D02*
X007900Y014555D01*
X007825Y014555D01*
X007525Y014255D01*
X007525Y014555D01*
X007600Y014716D02*
X007900Y015016D01*
X007600Y015016D01*
X007525Y014941D01*
X007525Y014791D01*
X007600Y014716D01*
X007900Y014716D01*
X007975Y014791D01*
X007975Y014941D01*
X007900Y015016D01*
X007825Y015176D02*
X007975Y015326D01*
X007525Y015326D01*
X007525Y015176D02*
X007525Y015476D01*
X007600Y015636D02*
X007525Y015711D01*
X007525Y015862D01*
X007600Y015937D01*
X007675Y015937D01*
X007750Y015862D01*
X007750Y015786D01*
X007750Y015862D02*
X007825Y015937D01*
X007900Y015937D01*
X007975Y015862D01*
X007975Y015711D01*
X007900Y015636D01*
X010025Y015710D02*
X010175Y015860D01*
X010475Y015860D01*
X010325Y016020D02*
X010475Y016170D01*
X010325Y016320D01*
X010025Y016320D01*
X010025Y016480D02*
X010025Y016781D01*
X010025Y016480D02*
X010475Y016480D01*
X010250Y016320D02*
X010250Y016020D01*
X010325Y016020D02*
X010025Y016020D01*
X010025Y015710D02*
X010175Y015560D01*
X010475Y015560D01*
X010400Y015399D02*
X010475Y015324D01*
X010475Y015174D01*
X010400Y015099D01*
X010100Y015099D01*
X010025Y015174D01*
X010025Y015324D01*
X010100Y015399D01*
X010400Y015399D01*
X010400Y014939D02*
X010475Y014864D01*
X010475Y014639D01*
X010025Y014639D01*
X010025Y014864D01*
X010100Y014939D01*
X010400Y014939D01*
X010475Y014479D02*
X010025Y014479D01*
X010475Y014178D01*
X010025Y014178D01*
X010025Y014018D02*
X010325Y014018D01*
X010475Y013868D01*
X010325Y013718D01*
X010025Y013718D01*
X010100Y013558D02*
X010025Y013483D01*
X010025Y013333D01*
X010100Y013258D01*
X010250Y013333D02*
X010250Y013483D01*
X010175Y013558D01*
X010100Y013558D01*
X010250Y013718D02*
X010250Y014018D01*
X010400Y013558D02*
X010475Y013483D01*
X010475Y013333D01*
X010400Y013258D01*
X010325Y013258D01*
X010250Y013333D01*
X010175Y012637D02*
X010100Y012637D01*
X010025Y012562D01*
X010025Y012412D01*
X010100Y012337D01*
X010250Y012412D02*
X010250Y012562D01*
X010175Y012637D01*
X010400Y012637D02*
X010475Y012562D01*
X010475Y012412D01*
X010400Y012337D01*
X010325Y012337D01*
X010250Y012412D01*
X010025Y012180D02*
X010025Y012030D01*
X010025Y012105D02*
X010475Y012105D01*
X010475Y012030D02*
X010475Y012180D01*
X010475Y011870D02*
X010100Y011870D01*
X010025Y011795D01*
X010025Y011645D01*
X010100Y011570D01*
X010475Y011570D01*
X010475Y011109D02*
X010025Y011109D01*
X010025Y011409D01*
D11*
X011435Y011233D02*
X011435Y010917D01*
X011540Y010812D01*
X011750Y010812D01*
X011855Y010917D01*
X011855Y011233D01*
X012066Y011233D02*
X011435Y011233D01*
X011645Y010588D02*
X011645Y010168D01*
X011540Y010168D02*
X011750Y010168D01*
X011855Y010273D01*
X011855Y010483D01*
X011750Y010588D01*
X011645Y010588D01*
X011435Y010483D02*
X011435Y010273D01*
X011540Y010168D01*
X011540Y009944D02*
X011435Y009838D01*
X011435Y009523D01*
X012066Y009523D01*
X011855Y009523D02*
X011855Y009838D01*
X011750Y009944D01*
X011540Y009944D01*
X011435Y009299D02*
X012066Y009299D01*
X011855Y009089D01*
X012066Y008879D01*
X011435Y008879D01*
X011540Y012101D02*
X011435Y012206D01*
X011435Y012417D01*
X011540Y012522D01*
X011645Y012522D01*
X011750Y012417D01*
X011750Y012206D01*
X011855Y012101D01*
X011960Y012101D01*
X012066Y012206D01*
X012066Y012417D01*
X011960Y012522D01*
X011750Y012746D02*
X011855Y012851D01*
X011855Y013061D01*
X011750Y013166D01*
X011645Y013166D01*
X011645Y012746D01*
X011540Y012746D02*
X011750Y012746D01*
X011540Y012746D02*
X011435Y012851D01*
X011435Y013061D01*
X011540Y013390D02*
X011435Y013496D01*
X011435Y013811D01*
X011330Y013811D02*
X011855Y013811D01*
X011855Y013496D01*
X011750Y013390D01*
X011540Y013390D01*
X011225Y013706D02*
X011330Y013811D01*
X011225Y013706D02*
X011225Y013601D01*
X011540Y014035D02*
X011435Y014140D01*
X011540Y014245D01*
X011435Y014350D01*
X011540Y014455D01*
X011855Y014455D01*
X011855Y014785D02*
X011855Y014995D01*
X011750Y015100D01*
X011435Y015100D01*
X011435Y014785D01*
X011540Y014680D01*
X011645Y014785D01*
X011645Y015100D01*
X011540Y015324D02*
X011435Y015429D01*
X011435Y015744D01*
X011330Y015744D02*
X011225Y015639D01*
X011225Y015534D01*
X011330Y015744D02*
X011855Y015744D01*
X011855Y015324D02*
X011540Y015324D01*
X011540Y016613D02*
X011435Y016718D01*
X011435Y016928D01*
X011540Y017034D01*
X011540Y017258D02*
X011645Y017363D01*
X011645Y017678D01*
X011750Y017678D02*
X011435Y017678D01*
X011435Y017363D01*
X011540Y017258D01*
X011855Y017363D02*
X011855Y017573D01*
X011750Y017678D01*
X011855Y017902D02*
X011855Y018218D01*
X011750Y018323D01*
X011540Y018323D01*
X011435Y018218D01*
X011435Y017902D01*
X011225Y017902D02*
X011855Y017902D01*
X011750Y018547D02*
X011540Y018547D01*
X011435Y018652D01*
X011435Y018862D01*
X011645Y018967D02*
X011645Y018547D01*
X011750Y018547D02*
X011855Y018652D01*
X011855Y018862D01*
X011750Y018967D01*
X011645Y018967D01*
X011960Y017034D02*
X012066Y016928D01*
X012066Y016718D01*
X011960Y016613D01*
X011540Y016613D01*
X011540Y014035D02*
X011855Y014035D01*
M02*
