G75*
G70*
%OFA0B0*%
%FSLAX24Y24*%
%IPPOS*%
%LPD*%
%AMOC8*
5,1,8,0,0,1.08239X$1,22.5*
%
%ADD10C,0.0050*%
D10*
X000500Y006250D02*
X005500Y006250D01*
X005503Y006357D01*
X005510Y006464D01*
X005523Y006570D01*
X005541Y006676D01*
X005563Y006780D01*
X005591Y006884D01*
X005624Y006986D01*
X005661Y007086D01*
X005703Y007185D01*
X005750Y007281D01*
X005801Y007375D01*
X005857Y007466D01*
X005917Y007555D01*
X005981Y007641D01*
X006050Y007723D01*
X006122Y007803D01*
X006197Y007878D01*
X006277Y007950D01*
X006359Y008019D01*
X006445Y008083D01*
X006534Y008143D01*
X006625Y008199D01*
X006719Y008250D01*
X006815Y008297D01*
X006914Y008339D01*
X007014Y008376D01*
X007116Y008409D01*
X007220Y008437D01*
X007324Y008459D01*
X007430Y008477D01*
X007536Y008490D01*
X007643Y008497D01*
X007750Y008500D01*
X014750Y008500D01*
X014857Y008497D01*
X014964Y008490D01*
X015070Y008477D01*
X015176Y008459D01*
X015280Y008437D01*
X015384Y008409D01*
X015486Y008376D01*
X015586Y008339D01*
X015685Y008297D01*
X015781Y008250D01*
X015875Y008199D01*
X015966Y008143D01*
X016055Y008083D01*
X016141Y008019D01*
X016223Y007950D01*
X016303Y007878D01*
X016378Y007803D01*
X016450Y007723D01*
X016519Y007641D01*
X016583Y007555D01*
X016643Y007466D01*
X016699Y007375D01*
X016750Y007281D01*
X016797Y007185D01*
X016839Y007086D01*
X016876Y006986D01*
X016909Y006884D01*
X016937Y006780D01*
X016959Y006676D01*
X016977Y006570D01*
X016990Y006464D01*
X016997Y006357D01*
X017000Y006250D01*
X022000Y006250D01*
X022000Y029500D01*
X021994Y029738D01*
X021977Y029975D01*
X021949Y030212D01*
X021910Y030446D01*
X021859Y030679D01*
X021797Y030909D01*
X021725Y031135D01*
X021642Y031358D01*
X021548Y031577D01*
X021444Y031791D01*
X021330Y032000D01*
X021206Y032203D01*
X021073Y032400D01*
X020930Y032591D01*
X020779Y032774D01*
X020619Y032950D01*
X020450Y033119D01*
X020274Y033279D01*
X020091Y033430D01*
X019900Y033573D01*
X019703Y033706D01*
X019500Y033830D01*
X019291Y033944D01*
X019077Y034048D01*
X018858Y034142D01*
X018635Y034225D01*
X018409Y034297D01*
X018179Y034359D01*
X017946Y034410D01*
X017712Y034449D01*
X017475Y034477D01*
X017238Y034494D01*
X017000Y034500D01*
X005500Y034500D01*
X005255Y034494D01*
X005010Y034476D01*
X004766Y034446D01*
X004525Y034404D01*
X004285Y034350D01*
X004049Y034285D01*
X003816Y034208D01*
X003587Y034119D01*
X003362Y034020D01*
X003143Y033910D01*
X002929Y033789D01*
X002722Y033657D01*
X002522Y033516D01*
X002328Y033365D01*
X002142Y033205D01*
X001964Y033036D01*
X001795Y032858D01*
X001635Y032672D01*
X001484Y032478D01*
X001343Y032278D01*
X001211Y032071D01*
X001090Y031857D01*
X000980Y031638D01*
X000881Y031413D01*
X000792Y031184D01*
X000715Y030951D01*
X000650Y030715D01*
X000596Y030475D01*
X000554Y030234D01*
X000524Y029990D01*
X000506Y029745D01*
X000500Y029500D01*
X000500Y006250D01*
M02*
