G75*
G70*
%OFA0B0*%
%FSLAX24Y24*%
%IPPOS*%
%LPD*%
%AMOC8*
5,1,8,0,0,1.08239X$1,22.5*
%
%ADD10R,0.0472X0.0472*%
%ADD11OC8,0.0472*%
%ADD12C,0.0472*%
%ADD13C,0.0472*%
%ADD14R,0.0591X0.0591*%
%ADD15C,0.0591*%
%ADD16C,0.0240*%
%ADD17C,0.0376*%
%ADD18C,0.0160*%
%ADD19C,0.0320*%
%ADD20C,0.0400*%
D10*
X015750Y010000D03*
X016250Y023000D03*
X013250Y032000D03*
X005250Y032000D03*
D11*
X005250Y033000D03*
X006250Y033000D03*
X006250Y032000D03*
X007250Y032000D03*
X007250Y033000D03*
X008250Y033000D03*
X008250Y032000D03*
X009250Y032000D03*
X009250Y033000D03*
X013250Y033000D03*
X014250Y033000D03*
X014250Y032000D03*
X015250Y032000D03*
X015250Y033000D03*
X016250Y033000D03*
X016250Y032000D03*
X017250Y032000D03*
X017250Y033000D03*
D12*
X012986Y028000D02*
X012514Y028000D01*
X012514Y027000D02*
X012986Y027000D01*
X012986Y026000D02*
X012514Y026000D01*
X012514Y025000D02*
X012986Y025000D01*
X012986Y024000D02*
X012514Y024000D01*
X012514Y023000D02*
X012986Y023000D01*
X012986Y022000D02*
X012514Y022000D01*
X012514Y021000D02*
X012986Y021000D01*
X012986Y020000D02*
X012514Y020000D01*
X012514Y019000D02*
X012986Y019000D01*
X012986Y018000D02*
X012514Y018000D01*
X012514Y017000D02*
X012986Y017000D01*
X012986Y016000D02*
X012514Y016000D01*
X012514Y015000D02*
X012986Y015000D01*
X012986Y014000D02*
X012514Y014000D01*
X012514Y013000D02*
X012986Y013000D01*
X012986Y012000D02*
X012514Y012000D01*
X012514Y011000D02*
X012986Y011000D01*
X012986Y010000D02*
X012514Y010000D01*
X012514Y009000D02*
X012986Y009000D01*
X003986Y009000D02*
X003514Y009000D01*
X003514Y010000D02*
X003986Y010000D01*
X003986Y011000D02*
X003514Y011000D01*
X003514Y012000D02*
X003986Y012000D01*
X003986Y013000D02*
X003514Y013000D01*
X003514Y014000D02*
X003986Y014000D01*
X003986Y015000D02*
X003514Y015000D01*
X003514Y016000D02*
X003986Y016000D01*
X003986Y017000D02*
X003514Y017000D01*
X003514Y018000D02*
X003986Y018000D01*
X003986Y019000D02*
X003514Y019000D01*
X003514Y020000D02*
X003986Y020000D01*
X003986Y021000D02*
X003514Y021000D01*
X003514Y022000D02*
X003986Y022000D01*
X003986Y023000D02*
X003514Y023000D01*
X003514Y024000D02*
X003986Y024000D01*
X003986Y025000D02*
X003514Y025000D01*
X003514Y026000D02*
X003986Y026000D01*
X003986Y027000D02*
X003514Y027000D01*
X003514Y028000D02*
X003986Y028000D01*
D13*
X014250Y022000D03*
X014250Y021000D03*
X015250Y021000D03*
X015250Y022000D03*
X016250Y022000D03*
X016250Y021000D03*
X016250Y020000D03*
X017250Y021000D03*
X017250Y022000D03*
X018250Y022000D03*
X018250Y021000D03*
X019250Y021000D03*
X019250Y020000D03*
X019250Y019000D03*
X019250Y018000D03*
X019250Y017000D03*
X019250Y022000D03*
X014750Y019000D03*
X014750Y018000D03*
X014750Y017000D03*
X014750Y016000D03*
X014750Y015000D03*
X014750Y014000D03*
X014750Y013000D03*
X014750Y010000D03*
X018250Y010000D03*
X018250Y009000D03*
X018250Y007000D03*
X019250Y007000D03*
X018250Y011000D03*
X004750Y007000D03*
X003750Y007000D03*
X002750Y007000D03*
D14*
X002250Y008000D03*
X021250Y008000D03*
D15*
X021250Y009000D03*
X021250Y010000D03*
X021250Y011000D03*
X021250Y012000D03*
X021250Y013000D03*
X021250Y014000D03*
X021250Y015000D03*
X021250Y016000D03*
X021250Y017000D03*
X021250Y018000D03*
X021250Y019000D03*
X021250Y020000D03*
X021250Y021000D03*
X021250Y022000D03*
X021250Y023000D03*
X021250Y024000D03*
X021250Y025000D03*
X021250Y026000D03*
X021250Y027000D03*
X021250Y028000D03*
X021250Y029000D03*
X021250Y030000D03*
X020250Y030000D03*
X020250Y029000D03*
X020250Y028000D03*
X020250Y027000D03*
X020250Y026000D03*
X020250Y025000D03*
X020250Y024000D03*
X020250Y023000D03*
X020250Y022000D03*
X020250Y021000D03*
X020250Y020000D03*
X020250Y019000D03*
X020250Y018000D03*
X020250Y017000D03*
X020250Y016000D03*
X020250Y015000D03*
X020250Y014000D03*
X020250Y013000D03*
X020250Y012000D03*
X020250Y011000D03*
X020250Y010000D03*
X020250Y009000D03*
X020250Y008000D03*
X002250Y009000D03*
X002250Y010000D03*
X002250Y011000D03*
X002250Y012000D03*
X002250Y013000D03*
X002250Y014000D03*
X002250Y015000D03*
X002250Y016000D03*
X002250Y017000D03*
X002250Y018000D03*
X002250Y019000D03*
X002250Y020000D03*
X002250Y021000D03*
X002250Y022000D03*
X002250Y023000D03*
X002250Y024000D03*
X002250Y025000D03*
X002250Y026000D03*
X002250Y027000D03*
X002250Y028000D03*
X002250Y029000D03*
X002250Y030000D03*
X001250Y030000D03*
X001250Y029000D03*
X001250Y028000D03*
X001250Y027000D03*
X001250Y026000D03*
X001250Y025000D03*
X001250Y024000D03*
X001250Y023000D03*
X001250Y022000D03*
X001250Y021000D03*
X001250Y020000D03*
X001250Y019000D03*
X001250Y018000D03*
X001250Y017000D03*
X001250Y016000D03*
X001250Y015000D03*
X001250Y014000D03*
X001250Y013000D03*
X001250Y012000D03*
X001250Y011000D03*
X001250Y010000D03*
X001250Y009000D03*
X001250Y008000D03*
D16*
X000805Y007738D02*
X000805Y006555D01*
X002643Y006555D01*
X002643Y006555D01*
X002575Y006577D01*
X002511Y006610D01*
X002453Y006652D01*
X002402Y006703D01*
X002360Y006761D01*
X002327Y006825D01*
X002305Y006893D01*
X002294Y006964D01*
X002294Y007000D01*
X002750Y007000D01*
X002750Y007000D01*
X002750Y007456D01*
X002714Y007456D01*
X002643Y007445D01*
X002575Y007423D01*
X002511Y007390D01*
X002453Y007348D01*
X002402Y007297D01*
X002360Y007239D01*
X002327Y007175D01*
X002305Y007107D01*
X002294Y007036D01*
X002294Y007000D01*
X002750Y007000D01*
X003206Y007000D01*
X003206Y007036D01*
X003195Y007107D01*
X003173Y007175D01*
X003140Y007239D01*
X003098Y007297D01*
X003047Y007348D01*
X002989Y007390D01*
X002925Y007423D01*
X002857Y007445D01*
X002786Y007456D01*
X002750Y007456D01*
X002750Y007000D01*
X002750Y007000D01*
X002750Y007000D01*
X003206Y007000D01*
X003206Y006964D01*
X003195Y006893D01*
X003173Y006825D01*
X003140Y006761D01*
X003098Y006703D01*
X003047Y006652D01*
X002989Y006610D01*
X002925Y006577D01*
X002857Y006555D01*
X002857Y006555D01*
X003475Y006555D01*
X003458Y006562D01*
X003312Y006708D01*
X003234Y006897D01*
X003234Y007103D01*
X003310Y007287D01*
X003310Y008526D01*
X003221Y008562D01*
X003076Y008708D01*
X002998Y008897D01*
X002998Y009103D01*
X003076Y009292D01*
X003221Y009438D01*
X003372Y009500D01*
X003221Y009562D01*
X003076Y009708D01*
X002998Y009897D01*
X002998Y010103D01*
X003076Y010292D01*
X003221Y010438D01*
X003372Y010500D01*
X003221Y010562D01*
X003076Y010708D01*
X002998Y010897D01*
X002998Y011103D01*
X003076Y011292D01*
X003221Y011438D01*
X003372Y011500D01*
X003221Y011562D01*
X003076Y011708D01*
X002998Y011897D01*
X002998Y012103D01*
X003076Y012292D01*
X003221Y012438D01*
X003372Y012500D01*
X003221Y012562D01*
X003076Y012708D01*
X002998Y012897D01*
X002998Y013103D01*
X003076Y013292D01*
X003221Y013438D01*
X003372Y013500D01*
X003221Y013562D01*
X003076Y013708D01*
X002998Y013897D01*
X002998Y014103D01*
X003076Y014292D01*
X003221Y014438D01*
X003372Y014500D01*
X003221Y014562D01*
X003076Y014708D01*
X002998Y014897D01*
X002998Y015103D01*
X003076Y015292D01*
X003221Y015438D01*
X003372Y015500D01*
X003221Y015562D01*
X003076Y015708D01*
X002998Y015897D01*
X002998Y016103D01*
X003076Y016292D01*
X003221Y016438D01*
X003372Y016500D01*
X003221Y016562D01*
X003076Y016708D01*
X002998Y016897D01*
X002998Y017103D01*
X003076Y017292D01*
X003221Y017438D01*
X003372Y017500D01*
X003221Y017562D01*
X003076Y017708D01*
X002998Y017897D01*
X002998Y018103D01*
X003076Y018292D01*
X003221Y018438D01*
X003372Y018500D01*
X003221Y018562D01*
X003076Y018708D01*
X002998Y018897D01*
X002998Y019103D01*
X003076Y019292D01*
X003221Y019438D01*
X003372Y019500D01*
X003221Y019562D01*
X003076Y019708D01*
X002998Y019897D01*
X002998Y020103D01*
X003076Y020292D01*
X003221Y020438D01*
X003372Y020500D01*
X003221Y020562D01*
X003076Y020708D01*
X002998Y020897D01*
X002998Y021103D01*
X003076Y021292D01*
X003221Y021438D01*
X003372Y021500D01*
X003221Y021562D01*
X003076Y021708D01*
X002998Y021897D01*
X002998Y022103D01*
X003076Y022292D01*
X003221Y022438D01*
X003372Y022500D01*
X003221Y022562D01*
X003076Y022708D01*
X002998Y022897D01*
X002998Y023103D01*
X003076Y023292D01*
X003221Y023438D01*
X003372Y023500D01*
X003221Y023562D01*
X003076Y023708D01*
X002998Y023897D01*
X002998Y024103D01*
X003076Y024292D01*
X003221Y024438D01*
X003372Y024500D01*
X003221Y024562D01*
X003076Y024708D01*
X002998Y024897D01*
X002998Y025103D01*
X003076Y025292D01*
X003221Y025438D01*
X003372Y025500D01*
X003221Y025562D01*
X003076Y025708D01*
X002998Y025897D01*
X002998Y026103D01*
X003076Y026292D01*
X003221Y026438D01*
X003372Y026500D01*
X003221Y026562D01*
X003076Y026708D01*
X002998Y026897D01*
X002998Y027103D01*
X003076Y027292D01*
X003221Y027438D01*
X003372Y027500D01*
X003221Y027562D01*
X003076Y027708D01*
X002998Y027897D01*
X002998Y028103D01*
X003076Y028292D01*
X003221Y028438D01*
X003411Y028516D01*
X004089Y028516D01*
X004279Y028438D01*
X004424Y028292D01*
X004502Y028103D01*
X004502Y027897D01*
X004424Y027708D01*
X004279Y027562D01*
X004128Y027500D01*
X004279Y027438D01*
X004424Y027292D01*
X004502Y027103D01*
X004502Y026897D01*
X004424Y026708D01*
X004279Y026562D01*
X004128Y026500D01*
X004279Y026438D01*
X004424Y026292D01*
X004502Y026103D01*
X004502Y025897D01*
X004424Y025708D01*
X004279Y025562D01*
X004128Y025500D01*
X004279Y025438D01*
X004424Y025292D01*
X004502Y025103D01*
X004502Y024897D01*
X004424Y024708D01*
X004279Y024562D01*
X004128Y024500D01*
X004279Y024438D01*
X004424Y024292D01*
X004502Y024103D01*
X004502Y023897D01*
X004424Y023708D01*
X004279Y023562D01*
X004128Y023500D01*
X004279Y023438D01*
X004424Y023292D01*
X004502Y023103D01*
X004502Y022897D01*
X004424Y022708D01*
X004279Y022562D01*
X004128Y022500D01*
X004279Y022438D01*
X004424Y022292D01*
X004502Y022103D01*
X004502Y021897D01*
X004424Y021708D01*
X004279Y021562D01*
X004128Y021500D01*
X004279Y021438D01*
X004316Y021400D01*
X004330Y021400D01*
X004477Y021339D01*
X004977Y020839D01*
X005089Y020727D01*
X005150Y020580D01*
X005150Y007330D01*
X005188Y007292D01*
X005266Y007103D01*
X005266Y006897D01*
X005188Y006708D01*
X005042Y006562D01*
X005025Y006555D01*
X005199Y006555D01*
X005323Y007099D01*
X005323Y007099D01*
X005573Y007618D01*
X005932Y008068D01*
X005932Y008068D01*
X006382Y008427D01*
X006901Y008677D01*
X007462Y008805D01*
X007462Y008805D01*
X012101Y008805D01*
X012091Y008825D01*
X012069Y008893D01*
X012058Y008964D01*
X012058Y009000D01*
X012750Y009000D01*
X012750Y009000D01*
X012750Y009456D01*
X012478Y009456D01*
X012407Y009445D01*
X012339Y009423D01*
X012275Y009390D01*
X012217Y009348D01*
X012166Y009297D01*
X012124Y009239D01*
X012091Y009175D01*
X012069Y009107D01*
X012058Y009036D01*
X012058Y009000D01*
X012750Y009000D01*
X013442Y009000D01*
X013442Y009036D01*
X013431Y009107D01*
X013409Y009175D01*
X013376Y009239D01*
X013334Y009297D01*
X013283Y009348D01*
X013225Y009390D01*
X013161Y009423D01*
X013093Y009445D01*
X013022Y009456D01*
X012750Y009456D01*
X012750Y009000D01*
X012750Y009000D01*
X012750Y009000D01*
X013442Y009000D01*
X013442Y008964D01*
X013431Y008893D01*
X013409Y008825D01*
X013399Y008805D01*
X015038Y008805D01*
X015599Y008677D01*
X015599Y008677D01*
X016118Y008427D01*
X016118Y008427D01*
X016568Y008068D01*
X016568Y008068D01*
X016568Y008068D01*
X016927Y007618D01*
X016927Y007618D01*
X017177Y007099D01*
X017177Y007099D01*
X017301Y006555D01*
X017975Y006555D01*
X017958Y006562D01*
X017812Y006708D01*
X017734Y006897D01*
X017734Y007103D01*
X017770Y007190D01*
X017770Y008810D01*
X017734Y008897D01*
X017734Y009103D01*
X017812Y009292D01*
X017958Y009438D01*
X018108Y009500D01*
X018060Y009520D01*
X016129Y009520D01*
X016042Y009484D01*
X015458Y009484D01*
X015355Y009526D01*
X015276Y009605D01*
X015234Y009708D01*
X015234Y009819D01*
X015188Y009708D01*
X015042Y009562D01*
X014853Y009484D01*
X014647Y009484D01*
X014560Y009520D01*
X013176Y009520D01*
X013089Y009484D01*
X012411Y009484D01*
X012221Y009562D01*
X012076Y009708D01*
X011998Y009897D01*
X011998Y010103D01*
X012076Y010292D01*
X012221Y010438D01*
X012372Y010500D01*
X012221Y010562D01*
X012076Y010708D01*
X011998Y010897D01*
X011998Y011103D01*
X012076Y011292D01*
X012221Y011438D01*
X012372Y011500D01*
X012221Y011562D01*
X012076Y011708D01*
X011998Y011897D01*
X011998Y012103D01*
X012076Y012292D01*
X012221Y012438D01*
X012372Y012500D01*
X012221Y012562D01*
X012076Y012708D01*
X011998Y012897D01*
X011998Y013103D01*
X012076Y013292D01*
X012221Y013438D01*
X012372Y013500D01*
X012221Y013562D01*
X012076Y013708D01*
X011998Y013897D01*
X011998Y014103D01*
X012076Y014292D01*
X012221Y014438D01*
X012372Y014500D01*
X012221Y014562D01*
X012076Y014708D01*
X011998Y014897D01*
X011998Y015103D01*
X012076Y015292D01*
X012221Y015438D01*
X012372Y015500D01*
X012221Y015562D01*
X012076Y015708D01*
X011998Y015897D01*
X011998Y016103D01*
X012076Y016292D01*
X012221Y016438D01*
X012372Y016500D01*
X012221Y016562D01*
X012076Y016708D01*
X011998Y016897D01*
X011998Y017103D01*
X012076Y017292D01*
X012221Y017438D01*
X012372Y017500D01*
X012221Y017562D01*
X012076Y017708D01*
X011998Y017897D01*
X011998Y018103D01*
X012076Y018292D01*
X012221Y018438D01*
X012372Y018500D01*
X012221Y018562D01*
X012076Y018708D01*
X011998Y018897D01*
X011998Y019103D01*
X012076Y019292D01*
X012221Y019438D01*
X012372Y019500D01*
X012221Y019562D01*
X012076Y019708D01*
X011998Y019897D01*
X011998Y020103D01*
X012076Y020292D01*
X012221Y020438D01*
X012372Y020500D01*
X012221Y020562D01*
X012076Y020708D01*
X011998Y020897D01*
X011998Y021103D01*
X012076Y021292D01*
X012221Y021438D01*
X012372Y021500D01*
X012221Y021562D01*
X012076Y021708D01*
X011998Y021897D01*
X011998Y022103D01*
X012076Y022292D01*
X012221Y022438D01*
X012372Y022500D01*
X012221Y022562D01*
X012076Y022708D01*
X011998Y022897D01*
X011998Y023103D01*
X012076Y023292D01*
X012221Y023438D01*
X012372Y023500D01*
X012221Y023562D01*
X012076Y023708D01*
X011998Y023897D01*
X011998Y024103D01*
X012076Y024292D01*
X012221Y024438D01*
X012372Y024500D01*
X012221Y024562D01*
X012076Y024708D01*
X011998Y024897D01*
X011998Y025103D01*
X012076Y025292D01*
X012221Y025438D01*
X012372Y025500D01*
X012221Y025562D01*
X012076Y025708D01*
X011998Y025897D01*
X011998Y026103D01*
X012076Y026292D01*
X012221Y026438D01*
X012372Y026500D01*
X012221Y026562D01*
X012076Y026708D01*
X011998Y026897D01*
X011998Y027103D01*
X012076Y027292D01*
X012221Y027438D01*
X012372Y027500D01*
X012221Y027562D01*
X012076Y027708D01*
X011998Y027897D01*
X011998Y028103D01*
X012076Y028292D01*
X012221Y028438D01*
X012411Y028516D01*
X013089Y028516D01*
X013279Y028438D01*
X013356Y028360D01*
X013601Y028360D01*
X013890Y028649D01*
X013890Y031630D01*
X013734Y031786D01*
X013734Y032214D01*
X014020Y032500D01*
X013750Y032770D01*
X013464Y032484D01*
X013036Y032484D01*
X012734Y032786D01*
X012734Y033214D01*
X013036Y033516D01*
X013464Y033516D01*
X013750Y033230D01*
X014036Y033516D01*
X014464Y033516D01*
X014750Y033230D01*
X015036Y033516D01*
X015464Y033516D01*
X015750Y033230D01*
X016036Y033516D01*
X016464Y033516D01*
X016750Y033230D01*
X017036Y033516D01*
X017464Y033516D01*
X017766Y033214D01*
X017766Y032786D01*
X017480Y032500D01*
X017766Y032214D01*
X017766Y031786D01*
X017464Y031484D01*
X017036Y031484D01*
X016750Y031770D01*
X016610Y031630D01*
X016610Y024428D01*
X016555Y024296D01*
X016454Y024195D01*
X015954Y023695D01*
X015822Y023640D01*
X013356Y023640D01*
X013279Y023562D01*
X013128Y023500D01*
X013279Y023438D01*
X013424Y023292D01*
X013502Y023103D01*
X013502Y022897D01*
X013424Y022708D01*
X013279Y022562D01*
X013128Y022500D01*
X013279Y022438D01*
X013316Y022400D01*
X013920Y022400D01*
X013958Y022438D01*
X014147Y022516D01*
X014353Y022516D01*
X014542Y022438D01*
X014688Y022292D01*
X014750Y022142D01*
X014812Y022292D01*
X014958Y022438D01*
X015147Y022516D01*
X015353Y022516D01*
X015542Y022438D01*
X015580Y022400D01*
X015920Y022400D01*
X015958Y022438D01*
X016069Y022484D01*
X015958Y022484D01*
X015855Y022526D01*
X015776Y022605D01*
X015734Y022708D01*
X015734Y023292D01*
X015776Y023395D01*
X015855Y023474D01*
X015958Y023516D01*
X016542Y023516D01*
X016645Y023474D01*
X016724Y023395D01*
X016766Y023292D01*
X016766Y022708D01*
X016724Y022605D01*
X016645Y022526D01*
X016542Y022484D01*
X016431Y022484D01*
X016542Y022438D01*
X016580Y022400D01*
X016920Y022400D01*
X016958Y022438D01*
X017147Y022516D01*
X017353Y022516D01*
X017542Y022438D01*
X017688Y022292D01*
X017750Y022142D01*
X017812Y022292D01*
X017958Y022438D01*
X018147Y022516D01*
X018353Y022516D01*
X018542Y022438D01*
X018688Y022292D01*
X018750Y022142D01*
X018812Y022292D01*
X018958Y022438D01*
X019147Y022516D01*
X019353Y022516D01*
X019542Y022438D01*
X019688Y022292D01*
X019718Y022219D01*
X019762Y022326D01*
X019924Y022488D01*
X019954Y022500D01*
X019924Y022512D01*
X019762Y022674D01*
X019675Y022886D01*
X019675Y023114D01*
X019762Y023326D01*
X019924Y023488D01*
X019954Y023500D01*
X019924Y023512D01*
X019762Y023674D01*
X019675Y023886D01*
X019675Y024114D01*
X019762Y024326D01*
X019924Y024488D01*
X019954Y024500D01*
X019924Y024512D01*
X019762Y024674D01*
X019675Y024886D01*
X019675Y025114D01*
X019762Y025326D01*
X019924Y025488D01*
X019954Y025500D01*
X019924Y025512D01*
X019762Y025674D01*
X019675Y025886D01*
X019675Y026114D01*
X019762Y026326D01*
X019924Y026488D01*
X019954Y026500D01*
X019924Y026512D01*
X019762Y026674D01*
X019675Y026886D01*
X019675Y027114D01*
X019762Y027326D01*
X019924Y027488D01*
X019954Y027500D01*
X019924Y027512D01*
X019762Y027674D01*
X019675Y027886D01*
X019675Y028114D01*
X019762Y028326D01*
X019924Y028488D01*
X020032Y028533D01*
X019980Y028559D01*
X019914Y028607D01*
X019857Y028664D01*
X019809Y028730D01*
X019772Y028802D01*
X019747Y028879D01*
X019735Y028959D01*
X019735Y029000D01*
X020250Y029000D01*
X020765Y029000D01*
X021250Y029000D01*
X021250Y029000D01*
X021250Y029485D01*
X021250Y030000D01*
X021250Y030000D01*
X021250Y030515D01*
X021209Y030515D01*
X021129Y030503D01*
X021052Y030478D01*
X020980Y030441D01*
X020914Y030393D01*
X020857Y030336D01*
X020809Y030270D01*
X020772Y030198D01*
X020750Y030129D01*
X020728Y030198D01*
X020691Y030270D01*
X020643Y030336D01*
X020586Y030393D01*
X020520Y030441D01*
X020448Y030478D01*
X020371Y030503D01*
X020291Y030515D01*
X020250Y030515D01*
X020209Y030515D01*
X020129Y030503D01*
X020052Y030478D01*
X019980Y030441D01*
X019914Y030393D01*
X019857Y030336D01*
X019809Y030270D01*
X019772Y030198D01*
X019747Y030121D01*
X019735Y030041D01*
X019735Y030000D01*
X019735Y029959D01*
X019747Y029879D01*
X019772Y029802D01*
X019809Y029730D01*
X019857Y029664D01*
X019914Y029607D01*
X019980Y029559D01*
X020052Y029522D01*
X020121Y029500D01*
X020052Y029478D01*
X019980Y029441D01*
X019914Y029393D01*
X019857Y029336D01*
X019809Y029270D01*
X019772Y029198D01*
X019747Y029121D01*
X019735Y029041D01*
X019735Y029000D01*
X020250Y029000D01*
X020250Y029000D01*
X020250Y029000D01*
X020250Y029485D01*
X020250Y030000D01*
X020765Y030000D01*
X021250Y030000D01*
X021250Y030000D01*
X021250Y030000D01*
X021250Y030515D01*
X021291Y030515D01*
X021371Y030503D01*
X021448Y030478D01*
X021520Y030441D01*
X021586Y030393D01*
X021600Y030379D01*
X021565Y030596D01*
X021338Y031297D01*
X021003Y031953D01*
X020570Y032549D01*
X020049Y033070D01*
X019453Y033503D01*
X018797Y033838D01*
X018096Y034065D01*
X017368Y034181D01*
X017000Y034195D01*
X005500Y034195D01*
X005132Y034181D01*
X004404Y034065D01*
X003703Y033838D01*
X003047Y033503D01*
X002451Y033070D01*
X001930Y032549D01*
X001497Y031953D01*
X001162Y031297D01*
X000935Y030596D01*
X000916Y030480D01*
X000924Y030488D01*
X001136Y030575D01*
X001364Y030575D01*
X001576Y030488D01*
X001738Y030326D01*
X001750Y030296D01*
X001762Y030326D01*
X001924Y030488D01*
X002136Y030575D01*
X002364Y030575D01*
X002576Y030488D01*
X002738Y030326D01*
X002825Y030114D01*
X002825Y029886D01*
X002738Y029674D01*
X002576Y029512D01*
X002546Y029500D01*
X002576Y029488D01*
X002738Y029326D01*
X002825Y029114D01*
X002825Y028886D01*
X002738Y028674D01*
X002576Y028512D01*
X002546Y028500D01*
X002576Y028488D01*
X002738Y028326D01*
X002825Y028114D01*
X002825Y027886D01*
X002738Y027674D01*
X002576Y027512D01*
X002546Y027500D01*
X002576Y027488D01*
X002738Y027326D01*
X002825Y027114D01*
X002825Y026886D01*
X002738Y026674D01*
X002576Y026512D01*
X002546Y026500D01*
X002576Y026488D01*
X002738Y026326D01*
X002825Y026114D01*
X002825Y025886D01*
X002738Y025674D01*
X002576Y025512D01*
X002546Y025500D01*
X002576Y025488D01*
X002738Y025326D01*
X002825Y025114D01*
X002825Y024886D01*
X002738Y024674D01*
X002576Y024512D01*
X002546Y024500D01*
X002576Y024488D01*
X002738Y024326D01*
X002825Y024114D01*
X002825Y023886D01*
X002738Y023674D01*
X002576Y023512D01*
X002546Y023500D01*
X002576Y023488D01*
X002738Y023326D01*
X002825Y023114D01*
X002825Y022886D01*
X002738Y022674D01*
X002576Y022512D01*
X002546Y022500D01*
X002576Y022488D01*
X002738Y022326D01*
X002825Y022114D01*
X002825Y021886D01*
X002738Y021674D01*
X002576Y021512D01*
X002546Y021500D01*
X002576Y021488D01*
X002738Y021326D01*
X002825Y021114D01*
X002825Y020886D01*
X002738Y020674D01*
X002576Y020512D01*
X002546Y020500D01*
X002576Y020488D01*
X002738Y020326D01*
X002825Y020114D01*
X002825Y019886D01*
X002738Y019674D01*
X002576Y019512D01*
X002546Y019500D01*
X002576Y019488D01*
X002738Y019326D01*
X002825Y019114D01*
X002825Y018886D01*
X002738Y018674D01*
X002576Y018512D01*
X002546Y018500D01*
X002576Y018488D01*
X002738Y018326D01*
X002825Y018114D01*
X002825Y017886D01*
X002738Y017674D01*
X002576Y017512D01*
X002546Y017500D01*
X002576Y017488D01*
X002738Y017326D01*
X002825Y017114D01*
X002825Y016886D01*
X002738Y016674D01*
X002576Y016512D01*
X002546Y016500D01*
X002576Y016488D01*
X002738Y016326D01*
X002825Y016114D01*
X002825Y015886D01*
X002738Y015674D01*
X002576Y015512D01*
X002546Y015500D01*
X002576Y015488D01*
X002738Y015326D01*
X002825Y015114D01*
X002825Y014886D01*
X002738Y014674D01*
X002576Y014512D01*
X002546Y014500D01*
X002576Y014488D01*
X002738Y014326D01*
X002825Y014114D01*
X002825Y013886D01*
X002738Y013674D01*
X002576Y013512D01*
X002546Y013500D01*
X002576Y013488D01*
X002738Y013326D01*
X002825Y013114D01*
X002825Y012886D01*
X002738Y012674D01*
X002576Y012512D01*
X002546Y012500D01*
X002576Y012488D01*
X002738Y012326D01*
X002825Y012114D01*
X002825Y011886D01*
X002738Y011674D01*
X002576Y011512D01*
X002546Y011500D01*
X002576Y011488D01*
X002738Y011326D01*
X002825Y011114D01*
X002825Y010886D01*
X002738Y010674D01*
X002576Y010512D01*
X002546Y010500D01*
X002576Y010488D01*
X002738Y010326D01*
X002825Y010114D01*
X002825Y009886D01*
X002738Y009674D01*
X002576Y009512D01*
X002546Y009500D01*
X002576Y009488D01*
X002738Y009326D01*
X002825Y009114D01*
X002825Y008886D01*
X002738Y008674D01*
X002578Y008514D01*
X002630Y008500D01*
X002680Y008471D01*
X002721Y008430D01*
X002750Y008380D01*
X002765Y008324D01*
X002765Y008000D01*
X002250Y008000D01*
X002250Y008000D01*
X002250Y008000D01*
X001765Y008000D01*
X001250Y008000D01*
X001250Y008000D01*
X002250Y008000D01*
X002765Y008000D01*
X002765Y007676D01*
X002750Y007620D01*
X002721Y007570D01*
X002680Y007529D01*
X002630Y007500D01*
X002574Y007485D01*
X002250Y007485D01*
X002250Y008000D01*
X002250Y008000D01*
X002250Y007485D01*
X001926Y007485D01*
X001870Y007500D01*
X001820Y007529D01*
X001779Y007570D01*
X001750Y007620D01*
X001735Y007676D01*
X001735Y007824D01*
X001728Y007802D01*
X001691Y007730D01*
X001643Y007664D01*
X001586Y007607D01*
X001520Y007559D01*
X001448Y007522D01*
X001371Y007497D01*
X001291Y007485D01*
X001250Y007485D01*
X001250Y008000D01*
X001250Y008000D01*
X001250Y007485D01*
X001209Y007485D01*
X001129Y007497D01*
X001052Y007522D01*
X000980Y007559D01*
X000914Y007607D01*
X000857Y007664D01*
X000809Y007730D01*
X000805Y007738D01*
X000805Y007670D02*
X000853Y007670D01*
X000805Y007431D02*
X002600Y007431D01*
X002750Y007431D02*
X002750Y007431D01*
X002900Y007431D02*
X003310Y007431D01*
X003310Y007670D02*
X002764Y007670D01*
X002765Y007908D02*
X003310Y007908D01*
X003310Y008147D02*
X002765Y008147D01*
X002748Y008385D02*
X003310Y008385D01*
X003160Y008624D02*
X002687Y008624D01*
X002816Y008862D02*
X003012Y008862D01*
X002998Y009101D02*
X002825Y009101D01*
X002725Y009339D02*
X003123Y009339D01*
X003206Y009578D02*
X002641Y009578D01*
X002796Y009816D02*
X003031Y009816D01*
X002998Y010055D02*
X002825Y010055D01*
X002751Y010293D02*
X003077Y010293D01*
X003296Y010532D02*
X002595Y010532D01*
X002777Y010770D02*
X003050Y010770D01*
X002998Y011009D02*
X002825Y011009D01*
X002770Y011247D02*
X003057Y011247D01*
X003337Y011486D02*
X002578Y011486D01*
X002758Y011724D02*
X003069Y011724D01*
X002998Y011963D02*
X002825Y011963D01*
X002789Y012201D02*
X003038Y012201D01*
X003226Y012440D02*
X002624Y012440D01*
X002739Y012678D02*
X003106Y012678D01*
X002998Y012917D02*
X002825Y012917D01*
X002808Y013155D02*
X003019Y013155D01*
X003177Y013394D02*
X002670Y013394D01*
X002696Y013632D02*
X003152Y013632D01*
X003009Y013871D02*
X002819Y013871D01*
X002825Y014109D02*
X003000Y014109D01*
X003131Y014348D02*
X002716Y014348D01*
X002650Y014586D02*
X003198Y014586D01*
X003028Y014825D02*
X002800Y014825D01*
X002825Y015063D02*
X002998Y015063D01*
X003085Y015302D02*
X002748Y015302D01*
X002604Y015540D02*
X003275Y015540D01*
X003047Y015779D02*
X002781Y015779D01*
X002825Y016017D02*
X002998Y016017D01*
X003061Y016256D02*
X002767Y016256D01*
X002561Y016494D02*
X003357Y016494D01*
X003066Y016733D02*
X002762Y016733D01*
X002825Y016971D02*
X002998Y016971D01*
X003042Y017210D02*
X002786Y017210D01*
X002616Y017448D02*
X003246Y017448D01*
X003097Y017687D02*
X002743Y017687D01*
X002825Y017925D02*
X002998Y017925D01*
X003023Y018164D02*
X002805Y018164D01*
X002662Y018402D02*
X003186Y018402D01*
X003143Y018641D02*
X002704Y018641D01*
X002823Y018879D02*
X003005Y018879D01*
X003004Y019118D02*
X002824Y019118D01*
X002708Y019356D02*
X003140Y019356D01*
X003189Y019595D02*
X002658Y019595D01*
X002804Y019833D02*
X003024Y019833D01*
X002998Y020072D02*
X002825Y020072D01*
X002744Y020310D02*
X003094Y020310D01*
X003255Y020549D02*
X002612Y020549D01*
X002784Y020787D02*
X003043Y020787D01*
X002998Y021026D02*
X002825Y021026D01*
X002763Y021264D02*
X003064Y021264D01*
X003366Y021503D02*
X002552Y021503D01*
X002765Y021741D02*
X003062Y021741D01*
X002998Y021980D02*
X002825Y021980D01*
X002782Y022218D02*
X003045Y022218D01*
X003267Y022457D02*
X002607Y022457D01*
X002746Y022695D02*
X003089Y022695D01*
X002998Y022934D02*
X002825Y022934D01*
X002801Y023172D02*
X003026Y023172D01*
X003194Y023411D02*
X002653Y023411D01*
X002713Y023649D02*
X003135Y023649D01*
X003002Y023888D02*
X002825Y023888D01*
X002820Y024126D02*
X003007Y024126D01*
X003148Y024365D02*
X002699Y024365D01*
X002667Y024603D02*
X003181Y024603D01*
X003021Y024842D02*
X002807Y024842D01*
X002825Y025080D02*
X002998Y025080D01*
X003102Y025319D02*
X002741Y025319D01*
X002621Y025557D02*
X003234Y025557D01*
X003040Y025796D02*
X002788Y025796D01*
X002825Y026034D02*
X002998Y026034D01*
X003068Y026273D02*
X002760Y026273D01*
X002573Y026511D02*
X003345Y026511D01*
X003059Y026750D02*
X002769Y026750D01*
X002825Y026988D02*
X002998Y026988D01*
X003049Y027227D02*
X002779Y027227D01*
X002599Y027465D02*
X003287Y027465D01*
X003080Y027704D02*
X002750Y027704D01*
X002825Y027942D02*
X002998Y027942D01*
X003030Y028181D02*
X002798Y028181D01*
X002645Y028419D02*
X003203Y028419D01*
X002721Y028658D02*
X008890Y028658D01*
X008890Y028896D02*
X002825Y028896D01*
X002817Y029135D02*
X008890Y029135D01*
X008890Y029272D02*
X008890Y026502D01*
X008853Y026465D01*
X008782Y026293D01*
X008782Y026107D01*
X008853Y025935D01*
X008890Y025898D01*
X008890Y022102D01*
X008853Y022065D01*
X008782Y021893D01*
X008782Y021707D01*
X008853Y021535D01*
X008985Y021403D01*
X009157Y021332D01*
X009343Y021332D01*
X009515Y021403D01*
X009647Y021535D01*
X009718Y021707D01*
X009718Y021893D01*
X009647Y022065D01*
X009610Y022102D01*
X009610Y025898D01*
X009647Y025935D01*
X009718Y026107D01*
X009718Y026293D01*
X009647Y026465D01*
X009610Y026502D01*
X009610Y029051D01*
X009891Y029332D01*
X009943Y029332D01*
X010115Y029403D01*
X010247Y029535D01*
X010318Y029707D01*
X010318Y029893D01*
X010247Y030065D01*
X010115Y030197D01*
X010110Y030199D01*
X010110Y033272D01*
X010055Y033404D01*
X009954Y033505D01*
X009855Y033604D01*
X009754Y033705D01*
X009622Y033760D01*
X008578Y033760D01*
X008446Y033705D01*
X008257Y033516D01*
X008036Y033516D01*
X007750Y033230D01*
X007464Y033516D01*
X007036Y033516D01*
X006750Y033230D01*
X006464Y033516D01*
X006036Y033516D01*
X005750Y033230D01*
X005464Y033516D01*
X005036Y033516D01*
X004734Y033214D01*
X004734Y032786D01*
X005004Y032516D01*
X004958Y032516D01*
X004855Y032474D01*
X004776Y032395D01*
X004734Y032292D01*
X004734Y031708D01*
X004776Y031605D01*
X004855Y031526D01*
X004958Y031484D01*
X005542Y031484D01*
X005645Y031526D01*
X005724Y031605D01*
X005766Y031708D01*
X005766Y031754D01*
X006036Y031484D01*
X006464Y031484D01*
X006750Y031770D01*
X007036Y031484D01*
X007464Y031484D01*
X007750Y031770D01*
X008036Y031484D01*
X008464Y031484D01*
X008750Y031770D01*
X009036Y031484D01*
X009390Y031484D01*
X009390Y029913D01*
X009382Y029893D01*
X009382Y029841D01*
X008945Y029404D01*
X008890Y029272D01*
X008932Y029373D02*
X002691Y029373D01*
X002675Y029612D02*
X009152Y029612D01*
X009382Y029850D02*
X002811Y029850D01*
X002825Y030089D02*
X009390Y030089D01*
X009390Y030327D02*
X002737Y030327D01*
X002388Y030566D02*
X009390Y030566D01*
X009390Y030804D02*
X001002Y030804D01*
X000930Y030566D02*
X001112Y030566D01*
X001080Y031043D02*
X009390Y031043D01*
X009390Y031281D02*
X001157Y031281D01*
X001276Y031520D02*
X004872Y031520D01*
X004734Y031758D02*
X001397Y031758D01*
X001528Y031997D02*
X004734Y031997D01*
X004734Y032235D02*
X001702Y032235D01*
X001875Y032474D02*
X004855Y032474D01*
X004808Y032712D02*
X002093Y032712D01*
X002331Y032951D02*
X004734Y032951D01*
X004734Y033189D02*
X002615Y033189D01*
X002943Y033428D02*
X004947Y033428D01*
X005553Y033428D02*
X005947Y033428D01*
X006553Y033428D02*
X006947Y033428D01*
X007553Y033428D02*
X007947Y033428D01*
X008407Y033666D02*
X003367Y033666D01*
X003909Y033905D02*
X018591Y033905D01*
X019133Y033666D02*
X009793Y033666D01*
X010032Y033428D02*
X012947Y033428D01*
X012734Y033189D02*
X010110Y033189D01*
X010110Y032951D02*
X012734Y032951D01*
X012808Y032712D02*
X010110Y032712D01*
X010110Y032474D02*
X013993Y032474D01*
X013808Y032712D02*
X013692Y032712D01*
X013571Y032441D02*
X013515Y032456D01*
X013250Y032456D01*
X013250Y032000D01*
X013706Y032000D01*
X013250Y032000D01*
X013250Y032000D01*
X013250Y032000D01*
X013250Y031544D01*
X013250Y032000D01*
X013250Y032000D01*
X013250Y032000D01*
X012794Y032000D01*
X012794Y032265D01*
X012809Y032321D01*
X012838Y032371D01*
X012879Y032412D01*
X012929Y032441D01*
X012985Y032456D01*
X013250Y032456D01*
X013250Y032000D01*
X012794Y032000D01*
X012794Y031735D01*
X012809Y031679D01*
X012838Y031629D01*
X012879Y031588D01*
X012929Y031559D01*
X012985Y031544D01*
X013250Y031544D01*
X013515Y031544D01*
X013571Y031559D01*
X013621Y031588D01*
X013662Y031629D01*
X013691Y031679D01*
X013706Y031735D01*
X013706Y032000D01*
X013706Y032265D01*
X013691Y032321D01*
X013662Y032371D01*
X013621Y032412D01*
X013571Y032441D01*
X013706Y032235D02*
X013755Y032235D01*
X013734Y031997D02*
X013706Y031997D01*
X013706Y031758D02*
X013762Y031758D01*
X013890Y031520D02*
X010110Y031520D01*
X010110Y031758D02*
X012794Y031758D01*
X012794Y031997D02*
X010110Y031997D01*
X010110Y032235D02*
X012794Y032235D01*
X013250Y032235D02*
X013250Y032235D01*
X013250Y031997D02*
X013250Y031997D01*
X013250Y031758D02*
X013250Y031758D01*
X013890Y031281D02*
X010110Y031281D01*
X010110Y031043D02*
X013890Y031043D01*
X013890Y030804D02*
X010110Y030804D01*
X010110Y030566D02*
X013890Y030566D01*
X013890Y030327D02*
X010110Y030327D01*
X010223Y030089D02*
X013890Y030089D01*
X013890Y029850D02*
X010318Y029850D01*
X010279Y029612D02*
X013890Y029612D01*
X013890Y029373D02*
X010042Y029373D01*
X009694Y029135D02*
X013890Y029135D01*
X013890Y028896D02*
X009610Y028896D01*
X009610Y028658D02*
X013890Y028658D01*
X013660Y028419D02*
X013297Y028419D01*
X012203Y028419D02*
X009610Y028419D01*
X009610Y028181D02*
X012030Y028181D01*
X011998Y027942D02*
X009610Y027942D01*
X009610Y027704D02*
X012080Y027704D01*
X012287Y027465D02*
X009610Y027465D01*
X009610Y027227D02*
X012049Y027227D01*
X011998Y026988D02*
X009610Y026988D01*
X009610Y026750D02*
X012059Y026750D01*
X012345Y026511D02*
X009610Y026511D01*
X009718Y026273D02*
X012068Y026273D01*
X011998Y026034D02*
X009688Y026034D01*
X009610Y025796D02*
X012040Y025796D01*
X012234Y025557D02*
X009610Y025557D01*
X009610Y025319D02*
X012102Y025319D01*
X011998Y025080D02*
X009610Y025080D01*
X009610Y024842D02*
X012021Y024842D01*
X012181Y024603D02*
X009610Y024603D01*
X009610Y024365D02*
X012148Y024365D01*
X012007Y024126D02*
X009610Y024126D01*
X009610Y023888D02*
X012002Y023888D01*
X012135Y023649D02*
X009610Y023649D01*
X009610Y023411D02*
X012194Y023411D01*
X012026Y023172D02*
X009610Y023172D01*
X009610Y022934D02*
X011998Y022934D01*
X012089Y022695D02*
X009610Y022695D01*
X009610Y022457D02*
X012267Y022457D01*
X012045Y022218D02*
X009610Y022218D01*
X009682Y021980D02*
X011998Y021980D01*
X012062Y021741D02*
X009718Y021741D01*
X009615Y021503D02*
X012366Y021503D01*
X012750Y021000D02*
X014250Y021000D01*
X013920Y020600D02*
X013958Y020562D01*
X014147Y020484D01*
X014353Y020484D01*
X014542Y020562D01*
X014688Y020708D01*
X014750Y020858D01*
X014812Y020708D01*
X014958Y020562D01*
X015147Y020484D01*
X015353Y020484D01*
X015542Y020562D01*
X015580Y020600D01*
X015920Y020600D01*
X015958Y020562D01*
X016147Y020484D01*
X016353Y020484D01*
X016542Y020562D01*
X016580Y020600D01*
X016920Y020600D01*
X016958Y020562D01*
X017147Y020484D01*
X017353Y020484D01*
X017542Y020562D01*
X017688Y020708D01*
X017750Y020858D01*
X017812Y020708D01*
X017958Y020562D01*
X018147Y020484D01*
X018353Y020484D01*
X018390Y020499D01*
X018390Y020428D01*
X018445Y020296D01*
X018546Y020195D01*
X018734Y020007D01*
X018734Y019897D01*
X018812Y019708D01*
X018958Y019562D01*
X019108Y019500D01*
X018958Y019438D01*
X018812Y019292D01*
X018734Y019103D01*
X018734Y018897D01*
X018812Y018708D01*
X018958Y018562D01*
X019108Y018500D01*
X018958Y018438D01*
X018812Y018292D01*
X018734Y018103D01*
X018734Y017897D01*
X018812Y017708D01*
X018958Y017562D01*
X019147Y017484D01*
X019353Y017484D01*
X019542Y017562D01*
X019688Y017708D01*
X019718Y017781D01*
X019762Y017674D01*
X019924Y017512D01*
X019954Y017500D01*
X019924Y017488D01*
X019762Y017326D01*
X019685Y017139D01*
X019673Y017175D01*
X019640Y017239D01*
X019598Y017297D01*
X019547Y017348D01*
X019489Y017390D01*
X019425Y017423D01*
X019357Y017445D01*
X019286Y017456D01*
X019250Y017456D01*
X019214Y017456D01*
X019143Y017445D01*
X019075Y017423D01*
X019011Y017390D01*
X018953Y017348D01*
X018902Y017297D01*
X018860Y017239D01*
X018827Y017175D01*
X018805Y017107D01*
X018794Y017036D01*
X018794Y017000D01*
X018794Y016964D01*
X018805Y016893D01*
X018827Y016825D01*
X018860Y016761D01*
X018902Y016703D01*
X018953Y016652D01*
X019011Y016610D01*
X019075Y016577D01*
X019143Y016555D01*
X019214Y016544D01*
X019250Y016544D01*
X019286Y016544D01*
X019357Y016555D01*
X019425Y016577D01*
X019489Y016610D01*
X019547Y016652D01*
X019598Y016703D01*
X019640Y016761D01*
X019673Y016825D01*
X019685Y016861D01*
X019762Y016674D01*
X019924Y016512D01*
X019954Y016500D01*
X019924Y016488D01*
X019762Y016326D01*
X019675Y016114D01*
X019675Y015886D01*
X019762Y015674D01*
X019924Y015512D01*
X019954Y015500D01*
X019924Y015488D01*
X019762Y015326D01*
X019675Y015114D01*
X019675Y014886D01*
X019762Y014674D01*
X019924Y014512D01*
X019954Y014500D01*
X019924Y014488D01*
X019762Y014326D01*
X019675Y014114D01*
X019675Y013886D01*
X019762Y013674D01*
X019924Y013512D01*
X019954Y013500D01*
X019924Y013488D01*
X019762Y013326D01*
X019675Y013114D01*
X019675Y012886D01*
X019762Y012674D01*
X019924Y012512D01*
X019954Y012500D01*
X019924Y012488D01*
X019762Y012326D01*
X019675Y012114D01*
X019675Y011886D01*
X019762Y011674D01*
X019924Y011512D01*
X019954Y011500D01*
X019924Y011488D01*
X019762Y011326D01*
X019675Y011114D01*
X019675Y010886D01*
X019762Y010674D01*
X019924Y010512D01*
X019954Y010500D01*
X019924Y010488D01*
X019916Y010480D01*
X019449Y010480D01*
X018724Y011205D01*
X018688Y011292D01*
X018542Y011438D01*
X018353Y011516D01*
X018147Y011516D01*
X017958Y011438D01*
X017812Y011292D01*
X017734Y011103D01*
X017734Y010897D01*
X017812Y010708D01*
X017958Y010562D01*
X018045Y010526D01*
X018082Y010489D01*
X018060Y010480D01*
X016129Y010480D01*
X016042Y010516D01*
X015458Y010516D01*
X015355Y010474D01*
X015276Y010395D01*
X015234Y010292D01*
X015234Y010181D01*
X015188Y010292D01*
X015042Y010438D01*
X014853Y010516D01*
X014647Y010516D01*
X014560Y010480D01*
X013176Y010480D01*
X013128Y010500D01*
X013279Y010562D01*
X013424Y010708D01*
X013502Y010897D01*
X013502Y011103D01*
X013424Y011292D01*
X013279Y011438D01*
X013128Y011500D01*
X013279Y011562D01*
X013424Y011708D01*
X013502Y011897D01*
X013502Y012103D01*
X013424Y012292D01*
X013279Y012438D01*
X013128Y012500D01*
X013279Y012562D01*
X013424Y012708D01*
X013502Y012897D01*
X013502Y013103D01*
X013424Y013292D01*
X013279Y013438D01*
X013128Y013500D01*
X013279Y013562D01*
X013424Y013708D01*
X013502Y013897D01*
X013502Y014103D01*
X013424Y014292D01*
X013279Y014438D01*
X013128Y014500D01*
X013279Y014562D01*
X013424Y014708D01*
X013502Y014897D01*
X013502Y015103D01*
X013424Y015292D01*
X013279Y015438D01*
X013128Y015500D01*
X013279Y015562D01*
X013424Y015708D01*
X013502Y015897D01*
X013502Y016103D01*
X013424Y016292D01*
X013279Y016438D01*
X013128Y016500D01*
X013279Y016562D01*
X013424Y016708D01*
X013502Y016897D01*
X013502Y017103D01*
X013446Y017238D01*
X014023Y016661D01*
X014170Y016600D01*
X014420Y016600D01*
X014458Y016562D01*
X014608Y016500D01*
X014458Y016438D01*
X014312Y016292D01*
X014234Y016103D01*
X014234Y015897D01*
X014312Y015708D01*
X014458Y015562D01*
X014608Y015500D01*
X014458Y015438D01*
X014312Y015292D01*
X014234Y015103D01*
X014234Y014897D01*
X014312Y014708D01*
X014458Y014562D01*
X014647Y014484D01*
X014853Y014484D01*
X015042Y014562D01*
X015188Y014708D01*
X015266Y014897D01*
X015266Y015103D01*
X015188Y015292D01*
X015042Y015438D01*
X014892Y015500D01*
X015042Y015562D01*
X015188Y015708D01*
X015266Y015897D01*
X015266Y016103D01*
X015188Y016292D01*
X015042Y016438D01*
X014892Y016500D01*
X015042Y016562D01*
X015188Y016708D01*
X015266Y016897D01*
X015266Y017103D01*
X015188Y017292D01*
X015042Y017438D01*
X014892Y017500D01*
X015042Y017562D01*
X015188Y017708D01*
X015266Y017897D01*
X015266Y018103D01*
X015188Y018292D01*
X015042Y018438D01*
X014892Y018500D01*
X015042Y018562D01*
X015188Y018708D01*
X015266Y018897D01*
X015266Y019103D01*
X015188Y019292D01*
X015042Y019438D01*
X014853Y019516D01*
X014647Y019516D01*
X014458Y019438D01*
X014312Y019292D01*
X014234Y019103D01*
X014234Y018897D01*
X014312Y018708D01*
X014458Y018562D01*
X014608Y018500D01*
X014458Y018438D01*
X014312Y018292D01*
X014234Y018103D01*
X014234Y017897D01*
X014312Y017708D01*
X014458Y017562D01*
X014608Y017500D01*
X014458Y017438D01*
X014420Y017400D01*
X014416Y017400D01*
X013477Y018339D01*
X013330Y018400D01*
X013316Y018400D01*
X013279Y018438D01*
X013128Y018500D01*
X013279Y018562D01*
X013424Y018708D01*
X013502Y018897D01*
X013502Y019103D01*
X013424Y019292D01*
X013279Y019438D01*
X013128Y019500D01*
X013279Y019562D01*
X013424Y019708D01*
X013502Y019897D01*
X013502Y020103D01*
X013424Y020292D01*
X013279Y020438D01*
X013128Y020500D01*
X013279Y020562D01*
X013316Y020600D01*
X013920Y020600D01*
X013991Y020549D02*
X013245Y020549D01*
X013406Y020310D02*
X015915Y020310D01*
X015902Y020297D02*
X015860Y020239D01*
X015827Y020175D01*
X015805Y020107D01*
X015794Y020036D01*
X015794Y020000D01*
X015794Y019964D01*
X015805Y019893D01*
X015827Y019825D01*
X015860Y019761D01*
X015902Y019703D01*
X015953Y019652D01*
X016011Y019610D01*
X016075Y019577D01*
X016143Y019555D01*
X016214Y019544D01*
X016250Y019544D01*
X016286Y019544D01*
X016357Y019555D01*
X016425Y019577D01*
X016489Y019610D01*
X016547Y019652D01*
X016598Y019703D01*
X016640Y019761D01*
X016673Y019825D01*
X016695Y019893D01*
X016706Y019964D01*
X016706Y020000D01*
X016706Y020036D01*
X016695Y020107D01*
X016673Y020175D01*
X016640Y020239D01*
X016598Y020297D01*
X016547Y020348D01*
X016489Y020390D01*
X016425Y020423D01*
X016357Y020445D01*
X016286Y020456D01*
X016250Y020456D01*
X016214Y020456D01*
X016143Y020445D01*
X016075Y020423D01*
X016011Y020390D01*
X015953Y020348D01*
X015902Y020297D01*
X015799Y020072D02*
X013502Y020072D01*
X013476Y019833D02*
X015825Y019833D01*
X015794Y020000D02*
X016250Y020000D01*
X016706Y020000D01*
X016250Y020000D01*
X016250Y020000D01*
X016250Y020000D01*
X016250Y020456D01*
X016250Y020000D01*
X016250Y019544D01*
X016250Y020000D01*
X016250Y020000D01*
X016250Y020000D01*
X015794Y020000D01*
X016041Y019595D02*
X013311Y019595D01*
X013360Y019356D02*
X014376Y019356D01*
X014240Y019118D02*
X013496Y019118D01*
X013495Y018879D02*
X014241Y018879D01*
X014379Y018641D02*
X013357Y018641D01*
X013314Y018402D02*
X014422Y018402D01*
X014259Y018164D02*
X013652Y018164D01*
X013891Y017925D02*
X014234Y017925D01*
X014333Y017687D02*
X014129Y017687D01*
X014368Y017448D02*
X014483Y017448D01*
X014250Y017000D02*
X013250Y018000D01*
X012750Y018000D01*
X012186Y018402D02*
X005150Y018402D01*
X005150Y018164D02*
X012023Y018164D01*
X011998Y017925D02*
X005150Y017925D01*
X005150Y017687D02*
X012097Y017687D01*
X012246Y017448D02*
X005150Y017448D01*
X005150Y017210D02*
X012042Y017210D01*
X011998Y016971D02*
X005150Y016971D01*
X005150Y016733D02*
X012066Y016733D01*
X012357Y016494D02*
X005150Y016494D01*
X005150Y016256D02*
X012061Y016256D01*
X011998Y016017D02*
X005150Y016017D01*
X005150Y015779D02*
X012047Y015779D01*
X012275Y015540D02*
X005150Y015540D01*
X005150Y015302D02*
X012085Y015302D01*
X011998Y015063D02*
X005150Y015063D01*
X005150Y014825D02*
X012028Y014825D01*
X012198Y014586D02*
X005150Y014586D01*
X005150Y014348D02*
X012131Y014348D01*
X012000Y014109D02*
X005150Y014109D01*
X005150Y013871D02*
X012009Y013871D01*
X012152Y013632D02*
X005150Y013632D01*
X005150Y013394D02*
X012177Y013394D01*
X012019Y013155D02*
X005150Y013155D01*
X005150Y012917D02*
X011998Y012917D01*
X012106Y012678D02*
X005150Y012678D01*
X005150Y012440D02*
X012226Y012440D01*
X012038Y012201D02*
X005150Y012201D01*
X005150Y011963D02*
X011998Y011963D01*
X012069Y011724D02*
X005150Y011724D01*
X005150Y011486D02*
X012337Y011486D01*
X012057Y011247D02*
X005150Y011247D01*
X005150Y011009D02*
X011998Y011009D01*
X012050Y010770D02*
X005150Y010770D01*
X005150Y010532D02*
X012296Y010532D01*
X012077Y010293D02*
X005150Y010293D01*
X005150Y010055D02*
X011998Y010055D01*
X012031Y009816D02*
X005150Y009816D01*
X005150Y009578D02*
X012206Y009578D01*
X012208Y009339D02*
X005150Y009339D01*
X005150Y009101D02*
X012068Y009101D01*
X012079Y008862D02*
X005150Y008862D01*
X005150Y008624D02*
X006790Y008624D01*
X006329Y008385D02*
X005150Y008385D01*
X005150Y008147D02*
X006030Y008147D01*
X005804Y007908D02*
X005150Y007908D01*
X005150Y007670D02*
X005614Y007670D01*
X005483Y007431D02*
X005150Y007431D01*
X005229Y007193D02*
X005368Y007193D01*
X005290Y006954D02*
X005266Y006954D01*
X005236Y006716D02*
X005191Y006716D01*
X004750Y007000D02*
X004750Y020500D01*
X004250Y021000D01*
X003750Y021000D01*
X004134Y021503D02*
X008885Y021503D01*
X008782Y021741D02*
X004438Y021741D01*
X004502Y021980D02*
X008818Y021980D01*
X008890Y022218D02*
X004455Y022218D01*
X004233Y022457D02*
X008890Y022457D01*
X008890Y022695D02*
X004411Y022695D01*
X004502Y022934D02*
X008890Y022934D01*
X008890Y023172D02*
X004474Y023172D01*
X004306Y023411D02*
X008890Y023411D01*
X008890Y023649D02*
X004365Y023649D01*
X004498Y023888D02*
X008890Y023888D01*
X008890Y024126D02*
X004493Y024126D01*
X004352Y024365D02*
X008890Y024365D01*
X008890Y024603D02*
X004319Y024603D01*
X004479Y024842D02*
X008890Y024842D01*
X008890Y025080D02*
X004502Y025080D01*
X004398Y025319D02*
X008890Y025319D01*
X008890Y025557D02*
X004266Y025557D01*
X004460Y025796D02*
X008890Y025796D01*
X008812Y026034D02*
X004502Y026034D01*
X004432Y026273D02*
X008782Y026273D01*
X008890Y026511D02*
X004155Y026511D01*
X004441Y026750D02*
X008890Y026750D01*
X008890Y026988D02*
X004502Y026988D01*
X004451Y027227D02*
X008890Y027227D01*
X008890Y027465D02*
X004213Y027465D01*
X004420Y027704D02*
X008890Y027704D01*
X008890Y027942D02*
X004502Y027942D01*
X004470Y028181D02*
X008890Y028181D01*
X008890Y028419D02*
X004297Y028419D01*
X005628Y031520D02*
X006000Y031520D01*
X006500Y031520D02*
X007000Y031520D01*
X006762Y031758D02*
X006738Y031758D01*
X007500Y031520D02*
X008000Y031520D01*
X007762Y031758D02*
X007738Y031758D01*
X008500Y031520D02*
X009000Y031520D01*
X008762Y031758D02*
X008738Y031758D01*
X004895Y034143D02*
X017605Y034143D01*
X017553Y033428D02*
X019557Y033428D01*
X019885Y033189D02*
X017766Y033189D01*
X017766Y032951D02*
X020169Y032951D01*
X020407Y032712D02*
X017692Y032712D01*
X017507Y032474D02*
X020625Y032474D01*
X020798Y032235D02*
X017745Y032235D01*
X017766Y031997D02*
X020972Y031997D01*
X021103Y031758D02*
X017738Y031758D01*
X017500Y031520D02*
X021224Y031520D01*
X021343Y031281D02*
X016610Y031281D01*
X016610Y031043D02*
X021420Y031043D01*
X021498Y030804D02*
X016610Y030804D01*
X016610Y030566D02*
X021570Y030566D01*
X021250Y030327D02*
X021250Y030327D01*
X021250Y030089D02*
X021250Y030089D01*
X021250Y030000D02*
X020250Y030000D01*
X020250Y030000D01*
X020250Y030000D01*
X020250Y030515D01*
X020250Y030000D01*
X020250Y030000D01*
X020250Y030000D01*
X019735Y030000D01*
X020250Y030000D01*
X020250Y029000D01*
X021250Y029000D01*
X021250Y029000D01*
X021250Y030000D01*
X021250Y029850D02*
X021250Y029850D01*
X021250Y029612D02*
X021250Y029612D01*
X021250Y029373D02*
X021250Y029373D01*
X021250Y029135D02*
X021250Y029135D01*
X020250Y029135D02*
X020250Y029135D01*
X020250Y029000D02*
X020250Y029000D01*
X020250Y029373D02*
X020250Y029373D01*
X020250Y029612D02*
X020250Y029612D01*
X020250Y029850D02*
X020250Y029850D01*
X020250Y030089D02*
X020250Y030089D01*
X020250Y030327D02*
X020250Y030327D01*
X020649Y030327D02*
X020851Y030327D01*
X019851Y030327D02*
X016610Y030327D01*
X016610Y030089D02*
X019742Y030089D01*
X019757Y029850D02*
X016610Y029850D01*
X016610Y029612D02*
X019910Y029612D01*
X019894Y029373D02*
X016610Y029373D01*
X016610Y029135D02*
X019752Y029135D01*
X019745Y028896D02*
X016610Y028896D01*
X016610Y028658D02*
X019864Y028658D01*
X019855Y028419D02*
X016610Y028419D01*
X016610Y028181D02*
X019702Y028181D01*
X019675Y027942D02*
X016610Y027942D01*
X016610Y027704D02*
X019750Y027704D01*
X019901Y027465D02*
X016610Y027465D01*
X016610Y027227D02*
X019721Y027227D01*
X019675Y026988D02*
X016610Y026988D01*
X016610Y026750D02*
X019731Y026750D01*
X019927Y026511D02*
X016610Y026511D01*
X016610Y026273D02*
X019740Y026273D01*
X019675Y026034D02*
X016610Y026034D01*
X016610Y025796D02*
X019712Y025796D01*
X019879Y025557D02*
X016610Y025557D01*
X016610Y025319D02*
X019759Y025319D01*
X019675Y025080D02*
X016610Y025080D01*
X016610Y024842D02*
X019693Y024842D01*
X019833Y024603D02*
X016610Y024603D01*
X016584Y024365D02*
X019801Y024365D01*
X019680Y024126D02*
X016385Y024126D01*
X016147Y023888D02*
X019675Y023888D01*
X019787Y023649D02*
X015843Y023649D01*
X015792Y023411D02*
X013306Y023411D01*
X013474Y023172D02*
X015734Y023172D01*
X015734Y022934D02*
X013502Y022934D01*
X013411Y022695D02*
X015739Y022695D01*
X015497Y022457D02*
X016003Y022457D01*
X016250Y022000D02*
X017250Y022000D01*
X017003Y022457D02*
X016497Y022457D01*
X016761Y022695D02*
X019754Y022695D01*
X019675Y022934D02*
X016766Y022934D01*
X016766Y023172D02*
X019699Y023172D01*
X019847Y023411D02*
X016708Y023411D01*
X017497Y022457D02*
X018003Y022457D01*
X017782Y022218D02*
X017718Y022218D01*
X017250Y021000D02*
X016250Y021000D01*
X015250Y021000D01*
X014991Y020549D02*
X014509Y020549D01*
X014721Y020787D02*
X014779Y020787D01*
X015509Y020549D02*
X015991Y020549D01*
X016250Y020310D02*
X016250Y020310D01*
X016250Y020072D02*
X016250Y020072D01*
X016250Y019833D02*
X016250Y019833D01*
X016250Y019595D02*
X016250Y019595D01*
X016459Y019595D02*
X018925Y019595D01*
X018876Y019356D02*
X015124Y019356D01*
X015260Y019118D02*
X018740Y019118D01*
X018741Y018879D02*
X015259Y018879D01*
X015121Y018641D02*
X018879Y018641D01*
X018922Y018402D02*
X015078Y018402D01*
X015241Y018164D02*
X018759Y018164D01*
X018734Y017925D02*
X015266Y017925D01*
X015167Y017687D02*
X018833Y017687D01*
X018845Y017210D02*
X015222Y017210D01*
X015266Y016971D02*
X018794Y016971D01*
X018794Y017000D02*
X019250Y017000D01*
X019250Y017000D01*
X019250Y017456D01*
X019250Y017000D01*
X019250Y016544D01*
X019250Y017000D01*
X019250Y017000D01*
X019250Y017000D01*
X018794Y017000D01*
X018880Y016733D02*
X015198Y016733D01*
X014906Y016494D02*
X019939Y016494D01*
X019738Y016733D02*
X019620Y016733D01*
X019655Y017210D02*
X019714Y017210D01*
X019884Y017448D02*
X019338Y017448D01*
X019250Y017448D02*
X019250Y017448D01*
X019162Y017448D02*
X015017Y017448D01*
X014750Y017000D02*
X014250Y017000D01*
X013952Y016733D02*
X013434Y016733D01*
X013502Y016971D02*
X013713Y016971D01*
X013475Y017210D02*
X013458Y017210D01*
X013143Y016494D02*
X014594Y016494D01*
X014297Y016256D02*
X013439Y016256D01*
X013502Y016017D02*
X014234Y016017D01*
X014283Y015779D02*
X013453Y015779D01*
X013225Y015540D02*
X014512Y015540D01*
X014321Y015302D02*
X013415Y015302D01*
X013502Y015063D02*
X014234Y015063D01*
X014264Y014825D02*
X013472Y014825D01*
X013302Y014586D02*
X014434Y014586D01*
X014511Y014390D02*
X014453Y014348D01*
X014402Y014297D01*
X014360Y014239D01*
X014327Y014175D01*
X014305Y014107D01*
X014294Y014036D01*
X014294Y014000D01*
X014294Y013964D01*
X014305Y013893D01*
X014327Y013825D01*
X014360Y013761D01*
X014402Y013703D01*
X014453Y013652D01*
X014511Y013610D01*
X014575Y013577D01*
X014643Y013555D01*
X014714Y013544D01*
X014750Y013544D01*
X014786Y013544D01*
X014857Y013555D01*
X014925Y013577D01*
X014989Y013610D01*
X015047Y013652D01*
X015098Y013703D01*
X015140Y013761D01*
X015173Y013825D01*
X015195Y013893D01*
X015206Y013964D01*
X015206Y014000D01*
X015206Y014036D01*
X015195Y014107D01*
X015173Y014175D01*
X015140Y014239D01*
X015098Y014297D01*
X015047Y014348D01*
X014989Y014390D01*
X014925Y014423D01*
X014857Y014445D01*
X014786Y014456D01*
X014750Y014456D01*
X014714Y014456D01*
X014643Y014445D01*
X014575Y014423D01*
X014511Y014390D01*
X014452Y014348D02*
X013369Y014348D01*
X013500Y014109D02*
X014306Y014109D01*
X014294Y014000D02*
X014750Y014000D01*
X015206Y014000D01*
X014750Y014000D01*
X014750Y014000D01*
X014750Y014000D01*
X014750Y014456D01*
X014750Y014000D01*
X014750Y013544D01*
X014750Y014000D01*
X014750Y014000D01*
X014750Y014000D01*
X014294Y014000D01*
X014312Y013871D02*
X013491Y013871D01*
X013348Y013632D02*
X014480Y013632D01*
X014458Y013438D02*
X014312Y013292D01*
X014234Y013103D01*
X014234Y012897D01*
X014312Y012708D01*
X014458Y012562D01*
X014647Y012484D01*
X014853Y012484D01*
X015042Y012562D01*
X015188Y012708D01*
X015266Y012897D01*
X015266Y013103D01*
X015188Y013292D01*
X015042Y013438D01*
X014853Y013516D01*
X014647Y013516D01*
X014458Y013438D01*
X014413Y013394D02*
X013323Y013394D01*
X013481Y013155D02*
X014255Y013155D01*
X014234Y012917D02*
X013502Y012917D01*
X013394Y012678D02*
X014342Y012678D01*
X014750Y013632D02*
X014750Y013632D01*
X014750Y013871D02*
X014750Y013871D01*
X014750Y014109D02*
X014750Y014109D01*
X014750Y014348D02*
X014750Y014348D01*
X015048Y014348D02*
X019784Y014348D01*
X019850Y014586D02*
X015066Y014586D01*
X015236Y014825D02*
X019700Y014825D01*
X019675Y015063D02*
X015266Y015063D01*
X015179Y015302D02*
X019752Y015302D01*
X019896Y015540D02*
X014988Y015540D01*
X015217Y015779D02*
X019719Y015779D01*
X019675Y016017D02*
X015266Y016017D01*
X015203Y016256D02*
X019733Y016256D01*
X019250Y016733D02*
X019250Y016733D01*
X019250Y016971D02*
X019250Y016971D01*
X019250Y017210D02*
X019250Y017210D01*
X019667Y017687D02*
X019757Y017687D01*
X018760Y019833D02*
X016675Y019833D01*
X016701Y020072D02*
X018669Y020072D01*
X018439Y020310D02*
X016585Y020310D01*
X016509Y020549D02*
X016991Y020549D01*
X017509Y020549D02*
X017991Y020549D01*
X017779Y020787D02*
X017721Y020787D01*
X018718Y022218D02*
X018782Y022218D01*
X019003Y022457D02*
X018497Y022457D01*
X019497Y022457D02*
X019893Y022457D01*
X016250Y022000D02*
X015250Y022000D01*
X015003Y022457D02*
X014497Y022457D01*
X014718Y022218D02*
X014782Y022218D01*
X014250Y022000D02*
X012750Y022000D01*
X013233Y022457D02*
X014003Y022457D01*
X012255Y020549D02*
X005150Y020549D01*
X005150Y020310D02*
X012094Y020310D01*
X011998Y020072D02*
X005150Y020072D01*
X005150Y019833D02*
X012024Y019833D01*
X012189Y019595D02*
X005150Y019595D01*
X005150Y019356D02*
X012140Y019356D01*
X012004Y019118D02*
X005150Y019118D01*
X005150Y018879D02*
X012005Y018879D01*
X012143Y018641D02*
X005150Y018641D01*
X005029Y020787D02*
X012043Y020787D01*
X011998Y021026D02*
X004790Y021026D01*
X004552Y021264D02*
X012064Y021264D01*
X015194Y014109D02*
X019675Y014109D01*
X019681Y013871D02*
X015188Y013871D01*
X015020Y013632D02*
X019804Y013632D01*
X019830Y013394D02*
X015087Y013394D01*
X015245Y013155D02*
X019692Y013155D01*
X019675Y012917D02*
X015266Y012917D01*
X015158Y012678D02*
X019761Y012678D01*
X019876Y012440D02*
X013274Y012440D01*
X013462Y012201D02*
X019711Y012201D01*
X019675Y011963D02*
X013502Y011963D01*
X013431Y011724D02*
X019742Y011724D01*
X019922Y011486D02*
X018427Y011486D01*
X018706Y011247D02*
X019730Y011247D01*
X019675Y011009D02*
X018920Y011009D01*
X019159Y010770D02*
X019723Y010770D01*
X019905Y010532D02*
X019397Y010532D01*
X018739Y009832D02*
X018688Y009708D01*
X018542Y009562D01*
X018392Y009500D01*
X018542Y009438D01*
X018688Y009292D01*
X018766Y009103D01*
X018766Y008897D01*
X018730Y008810D01*
X018730Y007190D01*
X018766Y007103D01*
X018766Y006897D01*
X018688Y006708D01*
X018542Y006562D01*
X018525Y006555D01*
X019143Y006555D01*
X019143Y006555D01*
X019075Y006577D01*
X019011Y006610D01*
X018953Y006652D01*
X018902Y006703D01*
X018860Y006761D01*
X018827Y006825D01*
X018805Y006893D01*
X018794Y006964D01*
X018794Y007000D01*
X019250Y007000D01*
X019250Y007000D01*
X019250Y007456D01*
X019214Y007456D01*
X019143Y007445D01*
X019075Y007423D01*
X019011Y007390D01*
X018953Y007348D01*
X018902Y007297D01*
X018860Y007239D01*
X018827Y007175D01*
X018805Y007107D01*
X018794Y007036D01*
X018794Y007000D01*
X019250Y007000D01*
X019706Y007000D01*
X019706Y007036D01*
X019695Y007107D01*
X019673Y007175D01*
X019640Y007239D01*
X019598Y007297D01*
X019547Y007348D01*
X019489Y007390D01*
X019425Y007423D01*
X019357Y007445D01*
X019286Y007456D01*
X019250Y007456D01*
X019250Y007000D01*
X019250Y007000D01*
X019250Y007000D01*
X019706Y007000D01*
X019706Y006964D01*
X019695Y006893D01*
X019673Y006825D01*
X019640Y006761D01*
X019598Y006703D01*
X019547Y006652D01*
X019489Y006610D01*
X019425Y006577D01*
X019357Y006555D01*
X019357Y006555D01*
X021695Y006555D01*
X021695Y007543D01*
X021680Y007529D01*
X021630Y007500D01*
X021574Y007485D01*
X021250Y007485D01*
X021250Y008000D01*
X021250Y008000D01*
X021250Y008000D01*
X020765Y008000D01*
X020250Y008000D01*
X020250Y008000D01*
X020250Y007485D01*
X020291Y007485D01*
X020371Y007497D01*
X020448Y007522D01*
X020520Y007559D01*
X020586Y007607D01*
X020643Y007664D01*
X020691Y007730D01*
X020728Y007802D01*
X020735Y007824D01*
X020735Y007676D01*
X020750Y007620D01*
X020779Y007570D01*
X020820Y007529D01*
X020870Y007500D01*
X020926Y007485D01*
X021250Y007485D01*
X021250Y008000D01*
X020250Y008000D01*
X020250Y008000D01*
X020250Y008000D01*
X019735Y008000D01*
X019735Y007959D01*
X019747Y007879D01*
X019772Y007802D01*
X019809Y007730D01*
X019857Y007664D01*
X019914Y007607D01*
X019980Y007559D01*
X020052Y007522D01*
X020129Y007497D01*
X020209Y007485D01*
X020250Y007485D01*
X020250Y008000D01*
X019735Y008000D01*
X019735Y008041D01*
X019747Y008121D01*
X019772Y008198D01*
X019809Y008270D01*
X019857Y008336D01*
X019914Y008393D01*
X019980Y008441D01*
X020032Y008467D01*
X019924Y008512D01*
X019762Y008674D01*
X019675Y008886D01*
X019675Y009114D01*
X019762Y009326D01*
X019924Y009488D01*
X019954Y009500D01*
X019924Y009512D01*
X019916Y009520D01*
X019155Y009520D01*
X018978Y009593D01*
X018739Y009832D01*
X018733Y009816D02*
X018755Y009816D01*
X018558Y009578D02*
X019016Y009578D01*
X018766Y009101D02*
X019675Y009101D01*
X019684Y008862D02*
X018752Y008862D01*
X018730Y008624D02*
X019813Y008624D01*
X019906Y008385D02*
X018730Y008385D01*
X018730Y008147D02*
X019756Y008147D01*
X019743Y007908D02*
X018730Y007908D01*
X018730Y007670D02*
X019853Y007670D01*
X020250Y007670D02*
X020250Y007670D01*
X020250Y007908D02*
X020250Y007908D01*
X020647Y007670D02*
X020736Y007670D01*
X021250Y007670D02*
X021250Y007670D01*
X021250Y007908D02*
X021250Y007908D01*
X021695Y007431D02*
X019400Y007431D01*
X019250Y007431D02*
X019250Y007431D01*
X019100Y007431D02*
X018730Y007431D01*
X018730Y007193D02*
X018836Y007193D01*
X018795Y006954D02*
X018766Y006954D01*
X018691Y006716D02*
X018893Y006716D01*
X019250Y007193D02*
X019250Y007193D01*
X019664Y007193D02*
X021695Y007193D01*
X021695Y006954D02*
X019705Y006954D01*
X019607Y006716D02*
X021695Y006716D01*
X019775Y009339D02*
X018641Y009339D01*
X017859Y009339D02*
X013292Y009339D01*
X013432Y009101D02*
X017734Y009101D01*
X017748Y008862D02*
X013421Y008862D01*
X012750Y009101D02*
X012750Y009101D01*
X012750Y009339D02*
X012750Y009339D01*
X013204Y010532D02*
X018032Y010532D01*
X017787Y010770D02*
X013450Y010770D01*
X013502Y011009D02*
X017734Y011009D01*
X017794Y011247D02*
X013443Y011247D01*
X013163Y011486D02*
X018073Y011486D01*
X017770Y008624D02*
X015710Y008624D01*
X016171Y008385D02*
X017770Y008385D01*
X017770Y008147D02*
X016470Y008147D01*
X016696Y007908D02*
X017770Y007908D01*
X017770Y007670D02*
X016886Y007670D01*
X017017Y007431D02*
X017770Y007431D01*
X017770Y007193D02*
X017132Y007193D01*
X017210Y006954D02*
X017734Y006954D01*
X017809Y006716D02*
X017264Y006716D01*
X015304Y009578D02*
X015058Y009578D01*
X015233Y009816D02*
X015234Y009816D01*
X015234Y010293D02*
X015187Y010293D01*
X003271Y007193D02*
X003164Y007193D01*
X003205Y006954D02*
X003234Y006954D01*
X003309Y006716D02*
X003107Y006716D01*
X002750Y007193D02*
X002750Y007193D01*
X002336Y007193D02*
X000805Y007193D01*
X000805Y006954D02*
X002295Y006954D01*
X002393Y006716D02*
X000805Y006716D01*
X001250Y007670D02*
X001250Y007670D01*
X001250Y007908D02*
X001250Y007908D01*
X001647Y007670D02*
X001736Y007670D01*
X002250Y007670D02*
X002250Y007670D01*
X002250Y007908D02*
X002250Y007908D01*
X001737Y030327D02*
X001763Y030327D01*
X002112Y030566D02*
X001388Y030566D01*
X013553Y033428D02*
X013947Y033428D01*
X014553Y033428D02*
X014947Y033428D01*
X015553Y033428D02*
X015947Y033428D01*
X016553Y033428D02*
X016947Y033428D01*
X016762Y031758D02*
X016738Y031758D01*
X016610Y031520D02*
X017000Y031520D01*
D17*
X017050Y030400D03*
X020250Y030900D03*
X019250Y023000D03*
X019250Y016100D03*
X019450Y011000D03*
X019450Y009000D03*
X017350Y009000D03*
X017350Y011000D03*
X014250Y009000D03*
X011750Y011700D03*
X011650Y016200D03*
X009250Y021800D03*
X009250Y026200D03*
X009850Y029800D03*
X012750Y028800D03*
X005250Y026700D03*
X005250Y024300D03*
X005250Y021300D03*
X005250Y019800D03*
X005250Y008000D03*
X003250Y008000D03*
D18*
X009250Y021800D02*
X009250Y026200D01*
X009250Y029200D01*
X009850Y029800D01*
X009750Y029900D01*
X009750Y033200D01*
X009550Y033400D01*
X008650Y033400D01*
X008250Y033000D01*
X012750Y028000D02*
X013750Y028000D01*
X014250Y028500D01*
X014250Y032000D01*
X014750Y032500D02*
X014250Y033000D01*
X014750Y032500D02*
X014750Y027500D01*
X014250Y027000D01*
X012750Y027000D01*
X012750Y026000D02*
X014750Y026000D01*
X015250Y026500D01*
X015250Y032000D01*
X015750Y032500D02*
X015250Y033000D01*
X015750Y032500D02*
X015750Y025500D01*
X015250Y025000D01*
X012750Y025000D01*
X012750Y024000D02*
X015750Y024000D01*
X016250Y024500D01*
X016250Y032000D01*
X018250Y022000D02*
X018750Y021500D01*
X018750Y020500D01*
X019250Y020000D01*
D19*
X003750Y009000D02*
X003750Y007000D01*
D20*
X012750Y010000D02*
X014750Y010000D01*
X015750Y010000D02*
X018250Y010000D01*
X018250Y009000D02*
X018250Y007000D01*
X019250Y010000D02*
X018250Y011000D01*
X019250Y010000D02*
X020250Y010000D01*
X021250Y010000D01*
M02*
