<?xml version="1.0" encoding="UTF-8" standalone="no"?>
<!-- Created with Inkscape (http://www.inkscape.org/) -->

<svg
   xmlns:dc="http://purl.org/dc/elements/1.1/"
   xmlns:cc="http://creativecommons.org/ns#"
   xmlns:rdf="http://www.w3.org/1999/02/22-rdf-syntax-ns#"
   xmlns:svg="http://www.w3.org/2000/svg"
   xmlns="http://www.w3.org/2000/svg"
   xmlns:sodipodi="http://sodipodi.sourceforge.net/DTD/sodipodi-0.dtd"
   xmlns:inkscape="http://www.inkscape.org/namespaces/inkscape"
   width="744.09448"
   height="1052.3622"
   id="svg2"
   version="1.1"
   inkscape:version="0.48.4 r9939"
   sodipodi:docname="base.svg">
  <defs
     id="defs4" />
  <sodipodi:namedview
     id="base"
     pagecolor="#ffffff"
     bordercolor="#666666"
     borderopacity="1.0"
     inkscape:pageopacity="0.0"
     inkscape:pageshadow="2"
     inkscape:zoom="0.4421256"
     inkscape:cx="181.63845"
     inkscape:cy="601.8715"
     inkscape:document-units="mm"
     inkscape:current-layer="layer1"
     showgrid="false"
     units="mm"
     inkscape:window-width="1596"
     inkscape:window-height="861"
     inkscape:window-x="0"
     inkscape:window-y="37"
     inkscape:window-maximized="0"
     showguides="true">
    <inkscape:grid
       type="xygrid"
       id="grid2985"
       empspacing="5"
       visible="true"
       enabled="true"
       snapvisiblegridlinesonly="true"
       units="mm"
       spacingx="1mm"
       spacingy="1mm" />
  </sodipodi:namedview>
  <metadata
     id="metadata7">
    <rdf:RDF>
      <cc:Work
         rdf:about="">
        <dc:format>image/svg+xml</dc:format>
        <dc:type
           rdf:resource="http://purl.org/dc/dcmitype/StillImage" />
        <dc:title></dc:title>
      </cc:Work>
    </rdf:RDF>
  </metadata>
  <g
     inkscape:label="Layer 1"
     inkscape:groupmode="layer"
     id="layer1"
     transform="translate(0,5.988066e-5)">
    <path
       style="fill:none;stroke:#000000;stroke-width:1.06655777;stroke-linejoin:round;stroke-miterlimit:4;stroke-dasharray:none"
       d="m 18.249814,733.98058 0,353.28132 707.593796,0 0,-353.28132 -707.593796,0 z m 17.1875,7.0625 c 5.5745,0 10.0938,4.51906 10.0938,10.09375 0,5.57468 -4.5193,10.09375 -10.0938,10.09375 -5.5744,0 -10.0937,-4.51907 -10.0937,-10.09375 0,-5.57469 4.5193,-10.09375 10.0937,-10.09375 z m 673.218796,0 c 5.5745,0 10.0937,4.51906 10.0937,10.09375 0,5.57468 -4.5192,10.09375 -10.0937,10.09375 -5.5745,0 -10.0938,-4.51907 -10.0938,-10.09375 0,-5.57469 4.5193,-10.09375 10.0938,-10.09375 z m -495.4375,85.15624 69.625,0 0,12.9375 -69.625,0 0,-12.9375 z m 248.0312,0 69.625,0 0,12.9375 -69.625,0 0,-12.9375 z m -248.0312,159.43751 69.625,0 0,12.9375 -69.625,0 0,-12.9375 z m 248.0312,0 69.625,0 0,12.9375 -69.625,0 0,-12.9375 z M 35.437314,1059.9493 c 5.5745,0 10.0938,4.5505 10.0938,10.125 0,5.5747 -4.5193,10.0938 -10.0938,10.0938 -5.5744,0 -10.0937,-4.5191 -10.0937,-10.0938 0,-5.5745 4.5193,-10.125 10.0937,-10.125 z m 673.218796,0 c 5.5745,0 10.0937,4.5505 10.0937,10.125 0,5.5747 -4.5192,10.0938 -10.0937,10.0938 -5.5745,0 -10.0938,-4.5191 -10.0938,-10.0938 0,-5.5745 4.5193,-10.125 10.0938,-10.125 z"
       id="rect2989-8"
       inkscape:connector-curvature="0" />
    <path
       style="fill:none;stroke:#000000;stroke-width:1.06653178;stroke-linejoin:round;stroke-miterlimit:4;stroke-dasharray:none"
       d="m 725.84465,378.60048 0,-353.264142 -707.594846,0 0,353.264142 707.594846,0 z m -17.18753,-7.0933 c -5.57451,0 -10.09376,-4.55 -10.09376,-10.1246 0,-5.5742 4.51925,-10.093 10.09376,-10.0933 5.57441,0 10.09377,4.5191 10.09377,10.0933 0,5.5745 -4.51936,10.1246 -10.09377,10.1246 z m -673.219816,0 c -5.5745,0 -10.0938,-4.55 -10.0938,-10.1246 0,-5.5742 4.5193,-10.093 10.0938,-10.0933 5.5745,0 10.0938,4.5191 10.0938,10.0933 0,5.5745 -4.5193,10.1246 -10.0938,10.1246 z M 658.43829,316.13477 c -2.7687,0 -5.03125,-2.23109 -5.03125,-4.99976 0,-2.59567 1.9721,-4.74307 4.5,-4.99976 0.1685,-0.017 0.35815,0 0.53125,0 2.76871,0 5.00001,2.2311 5.00001,4.99976 0,2.76867 -2.2313,4.99976 -5.00001,4.99976 z m -184.28154,0 c -2.76871,0 -5.00001,-2.23109 -5.00001,-4.99976 0,-2.59567 1.9721,-4.74307 4.50001,-4.99976 0.1685,-0.017 0.327,0 0.5,0 2.7687,0 5.03126,2.2311 5.03126,4.99976 0,2.76867 -2.26256,4.99976 -5.03126,4.99976 z M 217.90634,286.6362 c -2.73874,0 -4.93751,-2.22991 -4.93751,-4.96851 0,-2.56743 1.93929,-4.68568 4.43751,-4.93726 0.16655,-0.0168 0.32883,0 0.5,0 2.73873,0 4.96876,2.19866 4.96876,4.93726 0,2.7386 -2.23003,4.96851 -4.96876,4.96851 z m -141.718936,0 c -2.7388,0 -4.9688,-2.22991 -4.9688,-4.96851 0,-2.56743 1.9671,-4.68568 4.4688,-4.93726 0.1667,-0.0168 0.3288,0 0.5,0 2.7387,0 4.9687,2.19866 4.9687,4.93726 0,2.7386 -2.23,4.96851 -4.9687,4.96851 z M 694.0946,264.981 c -3.72473,0 -6.75001,-3.02513 -6.75001,-6.74967 0,-3.72454 3.02528,-6.74968 6.75001,-6.74968 3.72473,0 6.75001,3.02514 6.75001,6.74968 0,3.72454 -3.02528,6.74967 -6.75001,6.74967 z m -22.50004,0 c -3.72472,0 -6.75001,-3.02513 -6.75001,-6.74967 0,-3.72454 3.02529,-6.74968 6.75001,-6.74968 3.72473,0 6.75002,3.02514 6.75002,6.74968 0,3.72454 -3.02529,6.74967 -6.75002,6.74967 z m -22.50003,0 c -3.72473,0 -6.75001,-3.02513 -6.75001,-6.74967 0,-3.72454 3.02528,-6.74968 6.75001,-6.74968 3.72472,0 6.75001,3.02514 6.75001,6.74968 0,3.72454 -3.02529,6.74967 -6.75001,6.74967 z m -22.50004,0 c -3.72472,0 -6.75001,-3.02513 -6.75001,-6.74967 0,-3.72454 3.02529,-6.74968 6.75001,-6.74968 3.72473,0 6.75001,3.02514 6.75001,6.74968 0,3.72454 -3.02528,6.74967 -6.75001,6.74967 z m -22.50003,0 c -3.72473,0 -6.75001,-3.02513 -6.75001,-6.74967 0,-3.72454 3.02528,-6.74968 6.75001,-6.74968 3.72472,0 6.75001,3.02514 6.75001,6.74968 0,3.72454 -3.02529,6.74967 -6.75001,6.74967 z m -22.50004,0 c -3.72473,0 -6.75001,-3.02513 -6.75001,-6.74967 0,-3.72454 3.02528,-6.74968 6.75001,-6.74968 3.72473,0 6.75001,3.02514 6.75001,6.74968 0,3.72454 -3.02528,6.74967 -6.75001,6.74967 z m -22.50004,0 c -3.72472,0 -6.75001,-3.02513 -6.75001,-6.74967 0,-3.72454 3.02529,-6.74968 6.75001,-6.74968 3.72473,0 6.75002,3.02514 6.75002,6.74968 0,3.72454 -3.02529,6.74967 -6.75002,6.74967 z m -374.09435,-0.0312 c -3.72472,0 -6.75001,-3.02513 -6.75001,-6.74967 0,-3.72454 3.02529,-6.74967 6.75001,-6.74967 3.72473,0 6.75002,3.02513 6.75002,6.74967 0,3.72454 -3.02529,6.74967 -6.75002,6.74967 z m -22.50003,0 c -3.72473,0 -6.75001,-3.02513 -6.75001,-6.74967 0,-3.72454 3.02528,-6.74967 6.75001,-6.74967 3.72472,0 6.75001,3.02513 6.75001,6.74967 0,3.72454 -3.02529,6.74967 -6.75001,6.74967 z m -22.50004,0 c -3.72472,0 -6.74996,-3.02513 -6.74996,-6.74967 0,-3.72454 3.02524,-6.74967 6.74996,-6.74967 3.72473,0 6.75001,3.02513 6.75001,6.74967 0,3.72454 -3.02528,6.74967 -6.75001,6.74967 z m -22.50006,0 c -3.7247,0 -6.75,-3.02513 -6.75,-6.74967 0,-3.72454 3.0253,-6.74967 6.75,-6.74967 3.7248,0 6.75,3.02513 6.75,6.74967 0,3.72454 -3.0252,6.74967 -6.75,6.74967 z m -22.499997,0 c -3.7247,0 -6.75,-3.02513 -6.75,-6.74967 0,-3.72454 3.0253,-6.74967 6.75,-6.74967 3.7247,0 6.749997,3.02513 6.749997,6.74967 0,3.72454 -3.025297,6.74967 -6.749997,6.74967 z m -22.499999,0 c -3.7248,0 -6.7501,-3.02513 -6.7501,-6.74967 0,-3.72454 3.0253,-6.74967 6.7501,-6.74967 3.7247,0 6.75,3.02513 6.75,6.74967 0,3.72454 -3.0253,6.74967 -6.75,6.74967 z m -22.5001,0 c -3.7247,0 -6.75,-3.02513 -6.75,-6.74967 0,-3.72454 3.0253,-6.74967 6.75,-6.74967 3.7247,0 6.75,3.02513 6.75,6.74967 0,3.72454 -3.0253,6.74967 -6.75,6.74967 z M 421.56291,236.16995 c -2.7387,0 -4.96875,-2.22992 -4.96875,-4.96851 0,-2.56744 1.937,-4.68333 4.4375,-4.93726 0.1667,-0.0169 0.36005,0 0.53125,0 2.73871,0 4.93751,2.19866 4.93751,4.93726 0,2.73859 -2.1988,4.96851 -4.93751,4.96851 z m -99.00015,0 c -2.73871,0 -4.96876,-2.22992 -4.96876,-4.96851 0,-2.56744 1.937,-4.68333 4.4375,-4.93726 0.1667,-0.0169 0.36005,0 0.53126,0 2.7387,0 4.9375,2.19866 4.9375,4.93726 0,2.73859 -2.1988,4.96851 -4.9375,4.96851 z m 99.00015,-58.49717 c -2.7387,0 -4.96875,-2.22991 -4.96875,-4.96851 0,-2.56743 1.937,-4.68332 4.4375,-4.93726 0.1667,-0.0169 0.36005,0 0.53125,0 2.73871,0 4.93751,2.19867 4.93751,4.93726 0,2.7386 -2.1988,4.96851 -4.93751,4.96851 z m -99.00015,0 c -2.73871,0 -4.96876,-2.22991 -4.96876,-4.96851 0,-2.56743 1.937,-4.68332 4.4375,-4.93726 0.1667,-0.0169 0.36005,0 0.53126,0 2.7387,0 4.9375,2.19867 4.9375,4.93726 0,2.7386 -2.1988,4.96851 -4.9375,4.96851 z M 694.0946,152.48645 c -3.72473,0 -6.75001,-3.02513 -6.75001,-6.74967 0,-3.72454 3.02528,-6.74967 6.75001,-6.74967 3.72473,0 6.75001,3.02513 6.75001,6.74967 0,3.72454 -3.02528,6.74967 -6.75001,6.74967 z m -22.50004,0 c -3.72472,0 -6.75001,-3.02513 -6.75001,-6.74967 0,-3.72454 3.02529,-6.74967 6.75001,-6.74967 3.72473,0 6.75002,3.02513 6.75002,6.74967 0,3.72454 -3.02529,6.74967 -6.75002,6.74967 z m -22.50003,0 c -3.72473,0 -6.75001,-3.02513 -6.75001,-6.74967 0,-3.72454 3.02528,-6.74967 6.75001,-6.74967 3.72472,0 6.75001,3.02513 6.75001,6.74967 0,3.72454 -3.02529,6.74967 -6.75001,6.74967 z m -22.50004,0 c -3.72472,0 -6.75001,-3.02513 -6.75001,-6.74967 0,-3.72454 3.02529,-6.74967 6.75001,-6.74967 3.72473,0 6.75001,3.02513 6.75001,6.74967 0,3.72454 -3.02528,6.74967 -6.75001,6.74967 z m -22.50003,0 c -3.72473,0 -6.75001,-3.02513 -6.75001,-6.74967 0,-3.72454 3.02528,-6.74967 6.75001,-6.74967 3.72472,0 6.75001,3.02513 6.75001,6.74967 0,3.72454 -3.02529,6.74967 -6.75001,6.74967 z m -22.50004,0 c -3.72473,0 -6.75001,-3.02513 -6.75001,-6.74967 0,-3.72454 3.02528,-6.74967 6.75001,-6.74967 3.72473,0 6.75001,3.02513 6.75001,6.74967 0,3.72454 -3.02528,6.74967 -6.75001,6.74967 z m -22.50004,0 c -3.72472,0 -6.75001,-3.02513 -6.75001,-6.74967 0,-3.72454 3.02529,-6.74967 6.75001,-6.74967 3.72473,0 6.75002,3.02513 6.75002,6.74967 0,3.72454 -3.02529,6.74967 -6.75002,6.74967 z m -374.09435,-0.0312 c -3.72472,0 -6.75001,-3.02513 -6.75001,-6.74967 0,-3.72454 3.02529,-6.74967 6.75001,-6.74967 3.72473,0 6.75002,3.02513 6.75002,6.74967 0,3.72454 -3.02529,6.74967 -6.75002,6.74967 z m -22.50003,0 c -3.72473,0 -6.75001,-3.02513 -6.75001,-6.74967 0,-3.72454 3.02528,-6.74967 6.75001,-6.74967 3.72472,0 6.75001,3.02513 6.75001,6.74967 0,3.72454 -3.02529,6.74967 -6.75001,6.74967 z m -22.50004,0 c -3.72472,0 -6.74996,-3.02513 -6.74996,-6.74967 0,-3.72454 3.02524,-6.74967 6.74996,-6.74967 3.72473,0 6.75001,3.02513 6.75001,6.74967 0,3.72454 -3.02528,6.74967 -6.75001,6.74967 z m -22.50006,0 c -3.7247,0 -6.75,-3.02513 -6.75,-6.74967 0,-3.72454 3.0253,-6.74967 6.75,-6.74967 3.7248,0 6.75,3.02513 6.75,6.74967 0,3.72454 -3.0252,6.74967 -6.75,6.74967 z m -22.499997,0 c -3.7247,0 -6.75,-3.02513 -6.75,-6.74967 0,-3.72454 3.0253,-6.74967 6.75,-6.74967 3.7247,0 6.749997,3.02513 6.749997,6.74967 0,3.72454 -3.025297,6.74967 -6.749997,6.74967 z m -22.499999,0 c -3.7248,0 -6.7501,-3.02513 -6.7501,-6.74967 0,-3.72454 3.0253,-6.74967 6.7501,-6.74967 3.7247,0 6.75,3.02513 6.75,6.74967 0,3.72454 -3.0253,6.74967 -6.75,6.74967 z m -22.5001,0 c -3.7247,0 -6.75,-3.02513 -6.75,-6.74967 0,-3.72454 3.0253,-6.74967 6.75,-6.74967 3.7247,0 6.75,3.02513 6.75,6.74967 0,3.72454 -3.0253,6.74967 -6.75,6.74967 z M 217.90634,127.20648 c -2.73874,0 -4.93751,-2.22991 -4.93751,-4.96851 0,-2.56744 1.93929,-4.71348 4.43751,-4.9685 0.16655,-0.017 0.32883,0 0.5,0 2.73873,0 4.96876,2.2299 4.96876,4.9685 0,2.7386 -2.23003,4.96851 -4.96876,4.96851 z m -141.718936,0 c -2.7388,0 -4.9688,-2.22991 -4.9688,-4.96851 0,-2.56744 1.9671,-4.71348 4.4688,-4.9685 0.1667,-0.017 0.3288,0 0.5,0 2.7387,0 4.9687,2.2299 4.9687,4.9685 0,2.7386 -2.23,4.96851 -4.9687,4.96851 z M 601.71945,96.457928 c -2.7687,0 -5.00001,-2.23108 -5.00001,-4.99976 0,-2.59562 1.97211,-4.74304 4.50001,-4.99976 0.1685,-0.0171 0.327,0 0.5,0 2.76871,0 5.03126,2.23108 5.03126,4.99976 0,2.76868 -2.26255,4.99976 -5.03126,4.99976 z m -127.5627,0 c -2.76871,0 -5.00001,-2.23108 -5.00001,-4.99976 0,-2.59562 1.9721,-4.74304 4.50001,-4.99976 0.1685,-0.0171 0.327,0 0.5,0 2.7687,0 5.03126,2.23108 5.03126,4.99976 0,2.76868 -2.26256,4.99976 -5.03126,4.99976 z m 234.50037,-43.87292 c -5.57451,0 -10.09376,-4.51878 -10.09376,-10.09321 0,-5.57433 4.51925,-10.09321 10.09376,-10.09321 5.57441,0 10.09377,4.51888 10.09377,10.09321 0,5.57443 -4.51936,10.09321 -10.09377,10.09321 z m -673.219816,0 c -5.5745,0 -10.0938,-4.51878 -10.0938,-10.09321 0,-5.57433 4.5193,-10.09321 10.0938,-10.09321 5.5745,0 10.0938,4.51888 10.0938,10.09321 0,5.57443 -4.5193,10.09321 -10.0938,10.09321 z"
       id="rect2989"
       inkscape:connector-curvature="0" />
    <path
       style="fill:none;stroke:#000000;stroke-width:1.06655681;stroke-linejoin:round;stroke-miterlimit:4;stroke-dasharray:none"
       d="m 18.249814,379.68119 0,353.24999 707.593746,0 0,-353.24999 -707.593746,0 z m 17.1875,7.0626 c 5.5745,0 10.09375,4.519 10.09375,10.0937 0,5.5747 -4.51925,10.0939 -10.09375,10.0937 -5.5744,0 -10.09375,-4.519 -10.09375,-10.0937 0,-5.5747 4.51935,-10.0937 10.09375,-10.0937 z m 673.218746,0 c 5.5745,0 10.09375,4.519 10.09375,10.0937 0,5.5747 -4.51925,10.0939 -10.09375,10.0937 -5.5745,0 -10.09375,-4.519 -10.09375,-10.0937 0,-5.5747 4.51925,-10.0937 10.09375,-10.0937 z m -35.4375,62.25 c 10.33462,0 18.71875,8.3841 18.71875,18.7187 0,10.3346 -8.38413,18.7187 -18.71875,18.7187 -10.33462,0 -18.6875,-8.3841 -18.6875,-18.7187 0,-10.3346 8.35288,-18.7187 18.6875,-18.7187 z m -595.249996,42.0624 c 2.28228,0 4.125,1.8428 4.125,4.125 0,2.2823 -1.84272,4.125 -4.125,4.125 -2.28227,0 -4.15625,-1.8427 -4.15625,-4.125 0,-2.2822 1.87398,-4.125 4.15625,-4.125 z m 286.999996,0 c 2.28228,0 4.125,1.8428 4.125,4.125 0,2.2823 -1.84272,4.125 -4.125,4.125 -2.28228,0 -4.125,-1.8427 -4.125,-4.125 0,-2.2822 1.84272,-4.125 4.125,-4.125 z m -258.03125,19.8126 250.3125,0 0,90.8437 -250.3125,0 0,-90.8437 z m -28.968746,98 c 2.28228,0 4.125,1.8427 4.125,4.125 0,2.2822 -1.84272,4.1249 -4.125,4.125 -2.28227,0 -4.15625,-1.8428 -4.15625,-4.125 0,-2.2823 1.87398,-4.125 4.15625,-4.125 z m 286.999996,0 c 2.28228,0 4.125,1.8427 4.125,4.125 0,2.2822 -1.84272,4.1249 -4.125,4.125 -2.28228,0 -4.125,-1.8428 -4.125,-4.125 0,-2.2823 1.84272,-4.125 4.125,-4.125 z m 308.25,27.5 c 4.69755,0 8.53125,3.8024 8.53125,8.5 0,4.6975 -3.8337,8.5312 -8.53125,8.5312 -4.69755,0 -8.5,-3.8337 -8.5,-8.5312 0,-4.6976 3.80245,-8.5001 8.5,-8.5 z M 35.437314,705.64998 c 5.5745,0 10.09375,4.5191 10.09375,10.0938 0,5.5745 -4.51925,10.0937 -10.09375,10.0937 -5.5744,0 -10.09375,-4.5192 -10.09375,-10.0937 0,-5.5746 4.51935,-10.0938 10.09375,-10.0938 z m 673.218746,0 c 5.5745,0 10.09375,4.5191 10.09375,10.0938 0,5.5745 -4.51925,10.0937 -10.09375,10.0937 -5.5745,0 -10.09375,-4.5192 -10.09375,-10.0937 0,-5.5746 4.51925,-10.0938 10.09375,-10.0938 z"
       id="rect2989-8-1"
       inkscape:connector-curvature="0" />
  </g>
</svg>
